<?xml version="1.0" encoding="utf-8"?>
<!-- Generator: Adobe Illustrator 16.0.0, SVG Export Plug-In . SVG Version: 6.00 Build 0)  -->
<!DOCTYPE svg PUBLIC "-//W3C//DTD SVG 1.1//EN" "http://www.w3.org/Graphics/SVG/1.1/DTD/svg11.dtd">
<svg version="1.1" id="Layer_1" xmlns="http://www.w3.org/2000/svg" xmlns:xlink="http://www.w3.org/1999/xlink" x="0px" y="0px"
	 width="1032.5px" height="682.5px" viewBox="0 83.5 1032.5 682.5" enable-background="new 0 83.5 1032.5 682.5"
	 xml:space="preserve">
<g>
	<g transform="translate(-873 -17)">
		<g>
			<path id="kbzna" fill="#D9E8FF" d="M1417.867,182c97.6-56.354,10.202-125.79,104.093-146.495
				c134.11-29.574,255.924-22.683,341.115,20.954c40.179,20.58,72.211,49.334,93.547,86.29c24.042,41.647,32.271,89.85,26.55,141.47
				c-9.004,81.254,22.521,154.854-48.352,240.78c-68.085,82.549-74.305,149.234-129.988,191
				c-55.684,41.767-157.23,101.486-379.966,42c-222.735-59.485-513.046,23.143-545.95-49c-32.904-72.141,95.006-112.138,113.99-202
				c18.983-89.86,3.164-226.826,108.204-268.592C1206.15,196.64,1371.33,208.87,1417.867,182z"/>
		</g>
	</g>
	<g transform="translate(-873 -17)" opacity="0.5">
		<g>
			<path id="kbznb" fill="#FE971D" d="M1718.502,428.563c20.364,0,36.93,16.57,36.93,36.936c0,20.367-16.565,36.936-36.93,36.936
				c-20.363,0-36.93-16.569-36.93-36.936S1698.139,428.563,1718.502,428.563C1738.866,428.563,1718.502,428.563,1718.502,428.563z
				 M1641.009,465.498c0,42.805,34.695,77.505,77.493,77.505c42.799,0,77.494-34.7,77.494-77.505
				c0-42.804-34.695-77.504-77.494-77.504C1675.704,387.994,1641.009,422.694,1641.009,465.498z"/>
		</g>
	</g>
	<g transform="translate(-873 -17)" opacity="0.5">
		<g>
			<path id="kbznc" fill="#FE971D" d="M1769.5,238.87c6.964,0,12.628,5.665,12.628,12.63c0,6.963-5.664,12.629-12.627,12.629
				s-12.628-5.666-12.628-12.63S1762.538,238.869,1769.5,238.87L1769.5,238.87z M1743.003,251.5c0,14.636,11.863,26.5,26.498,26.5
				c14.634,0,26.497-11.864,26.497-26.5c0-14.637-11.863-26.502-26.497-26.502C1754.866,224.998,1743.003,236.863,1743.003,251.5
				L1743.003,251.5z"/>
		</g>
	</g>
</g>
</svg>
