<svg xmlns="http://www.w3.org/2000/svg" xmlns:xlink="http://www.w3.org/1999/xlink" width="370" height="380" viewBox="0 0 370 380"><defs><path id="q76ka" d="M771.63 1553.993c91.469 0 37.737 142.2 165.618 165.924C1065.13 1743.643 866.768 1953 775.3 1953c-91.468 0-169.287-141.445-169.287-233.083 0-91.637 74.15-165.924 165.618-165.924z"/><path id="q76kb" d="M754.64 1603.994c78.219 0 32.27 121.528 141.628 141.805 109.359 20.277-60.272 199.2-138.491 199.2-78.22 0-144.767-120.883-144.767-199.2s63.41-141.805 141.63-141.805z"/><path id="q76kc" d="M1216.143 1721.232c-90.476 13.431-58.207-135.116-188.186-139.807-129.98-4.69 35.492-240.905 125.968-254.336 90.477-13.43 188.222 115.055 201.677 205.699 13.456 90.644-48.982 175.013-139.459 188.444z"/><path id="q76kd" d="M1225.608 1669.278c-77.372 11.486-49.766-115.472-160.916-119.471-111.15-4 30.369-205.892 107.74-217.377 77.372-11.486 160.949 98.316 172.448 175.784 11.5 77.468-41.9 149.579-119.272 161.064z"/></defs><g><g clip-path="url(#clip-3820)" opacity=".5" transform="translate(-772 -1465)"><use fill="#d9e8ff" xlink:href="#q76ka"/></g><g clip-path="url(#clip-3820)" transform="translate(-772 -1465)"><use fill="#d9e8ff" xlink:href="#q76kb"/></g><g clip-path="url(#clip-3820)" opacity=".5" transform="translate(-772 -1465)"><use fill="#d9e8ff" xlink:href="#q76kc"/></g><g clip-path="url(#clip-3820)" transform="translate(-772 -1465)"><use fill="#d9e8ff" xlink:href="#q76kd"/></g></g></svg>