<?xml version="1.0" encoding="utf-8"?>
<!-- Generator: Adobe Illustrator 16.0.0, SVG Export Plug-In . SVG Version: 6.00 Build 0)  -->
<!DOCTYPE svg PUBLIC "-//W3C//DTD SVG 1.1//EN" "http://www.w3.org/Graphics/SVG/1.1/DTD/svg11.dtd">
<svg version="1.1" id="Layer_1" xmlns="http://www.w3.org/2000/svg" xmlns:xlink="http://www.w3.org/1999/xlink" x="0px" y="0px"
	 width="1902.19px" height="1027.31px" viewBox="82.226 31.69 1902.19 1027.31"
	 enable-background="new 82.226 31.69 1902.19 1027.31" xml:space="preserve">
<g>
	<g transform="translate(79 -954)">
		<g>
			<path id="agmpa" fill="#D9E8FF" d="M-0.97,957c0,0,4.899,247.104,365.995,169.988c361.096-77.116,287.739,90.433,595.99,63.993
				c308.253-26.44,372.079-16.526,580.991,34.996C1834.597,1298.134,1923,954,1923,954l36,905.893
				c0,0-250.33,227.279-568.991,127.984c-318.661-99.294-633.452,80.242-799.987-1c-166.536-81.24,77.401-254.006-166.998-231.972
				C178.623,1776.938-0.97,1900.887-0.97,1900.887V957z"/>
		</g>
	</g>
	<g transform="translate(79 -954)">
		<g>
			<g>
				<path id="agmpb" fill="#8081E1" d="M1469.995,1773c3.866,0,7,3.134,7,7s-3.134,7-7,7s-7-3.134-7-7S1466.129,1773,1469.995,1773z
					"/>
			</g>
		</g>
		<g>
			<g>
				<path id="agmpc" fill="#8081E1" d="M1490.995,1773c3.866,0,7,3.134,7,7s-3.134,7-7,7s-7-3.134-7-7S1487.129,1773,1490.995,1773z
					"/>
			</g>
		</g>
		<g>
			<g>
				<path id="agmpd" fill="#8081E1" d="M1511.994,1773c3.866,0,7,3.134,7,7s-3.134,7-7,7s-7-3.134-7-7S1508.128,1773,1511.994,1773z
					"/>
			</g>
		</g>
		<g>
			<g>
				<path id="agmpe" fill="#8081E1" d="M1533.994,1773c3.866,0,7,3.134,7,7s-3.134,7-7,7s-7-3.134-7-7S1530.128,1773,1533.994,1773z
					"/>
			</g>
		</g>
		<g>
			<g>
				<path id="agmpf" fill="#8081E1" d="M1554.994,1773c3.866,0,7,3.134,7,7s-3.134,7-7,7s-7-3.134-7-7S1551.128,1773,1554.994,1773
					L1554.994,1773z"/>
			</g>
		</g>
		<g>
			<g>
				<path id="agmpg" fill="#8081E1" d="M1575.993,1773c3.866,0,7,3.134,7,7s-3.134,7-7,7s-7-3.134-7-7S1572.127,1773,1575.993,1773z
					"/>
			</g>
		</g>
		<g>
			<g>
				<path id="agmph" fill="#8081E1" d="M1596.993,1773c3.866,0,7,3.134,7,7s-3.134,7-7,7s-7-3.134-7-7S1593.127,1773,1596.993,1773z
					"/>
			</g>
		</g>
		<g>
			<g>
				<path id="agmpi" fill="#8081E1" d="M1469.995,1792.998c3.866,0,7,3.134,7,7s-3.134,7-7,7s-7-3.134-7-7
					S1466.129,1792.998,1469.995,1792.998z"/>
			</g>
		</g>
		<g>
			<g>
				<path id="agmpj" fill="#8081E1" d="M1490.995,1792.998c3.866,0,7,3.134,7,7s-3.134,7-7,7s-7-3.134-7-7
					S1487.129,1792.998,1490.995,1792.998z"/>
			</g>
		</g>
		<g>
			<g>
				<path id="agmpk" fill="#8081E1" d="M1511.994,1792.998c3.866,0,7,3.134,7,7s-3.134,7-7,7s-7-3.134-7-7
					S1508.128,1792.998,1511.994,1792.998z"/>
			</g>
		</g>
		<g>
			<g>
				<path id="agmpl" fill="#8081E1" d="M1533.994,1792.998c3.866,0,7,3.134,7,7s-3.134,7-7,7s-7-3.134-7-7
					S1530.128,1792.998,1533.994,1792.998z"/>
			</g>
		</g>
		<g>
			<g>
				<path id="agmpm" fill="#8081E1" d="M1554.994,1792.998c3.866,0,7,3.134,7,7s-3.134,7-7,7s-7-3.134-7-7
					S1551.128,1792.998,1554.994,1792.998L1554.994,1792.998z"/>
			</g>
		</g>
		<g>
			<g>
				<path id="agmpn" fill="#8081E1" d="M1575.993,1792.998c3.866,0,7,3.134,7,7s-3.134,7-7,7s-7-3.134-7-7
					S1572.127,1792.998,1575.993,1792.998z"/>
			</g>
		</g>
		<g>
			<g>
				<path id="agmpo" fill="#8081E1" d="M1596.993,1792.998c3.866,0,7,3.134,7,7s-3.134,7-7,7s-7-3.134-7-7
					S1593.127,1792.998,1596.993,1792.998z"/>
			</g>
		</g>
		<g>
			<g>
				<path id="agmpp" fill="#8081E1" d="M1469.995,1812.996c3.866,0,7,3.134,7,7s-3.134,7-7,7s-7-3.134-7-7
					S1466.129,1812.996,1469.995,1812.996z"/>
			</g>
		</g>
		<g>
			<g>
				<path id="agmpq" fill="#8081E1" d="M1490.995,1812.996c3.865-0.046,7.036,3.051,7.082,6.917
					c0.046,3.865-3.051,7.036-6.917,7.082c-0.055,0.001-0.11,0.001-0.165,0c-3.866,0-7-3.134-7-7
					S1487.129,1812.995,1490.995,1812.996L1490.995,1812.996z"/>
			</g>
		</g>
		<g>
			<g>
				<path id="agmpr" fill="#8081E1" d="M1511.994,1812.996c3.866,0,7,3.134,7,7s-3.134,7-7,7s-7-3.134-7-7
					S1508.128,1812.996,1511.994,1812.996z"/>
			</g>
		</g>
		<g>
			<g>
				<path id="agmps" fill="#8081E1" d="M1533.994,1812.996c3.866,0,7,3.134,7,7s-3.134,7-7,7s-7-3.134-7-7
					S1530.128,1812.996,1533.994,1812.996z"/>
			</g>
		</g>
		<g>
			<g>
				<path id="agmpt" fill="#8081E1" d="M1554.994,1812.996c3.866,0,7,3.134,7,7s-3.134,7-7,7s-7-3.134-7-7
					S1551.128,1812.996,1554.994,1812.996L1554.994,1812.996z"/>
			</g>
		</g>
		<g>
			<g>
				<path id="agmpu" fill="#8081E1" d="M1575.993,1812.996c3.866,0,7,3.134,7,7s-3.134,7-7,7s-7-3.134-7-7
					S1572.127,1812.996,1575.993,1812.996z"/>
			</g>
		</g>
		<g>
			<g>
				<path id="agmpv" fill="#8081E1" d="M1596.993,1812.996c3.865-0.046,7.036,3.051,7.082,6.917
					c0.046,3.865-3.051,7.036-6.917,7.082c-0.055,0.001-0.11,0.001-0.165,0c-3.866,0-7-3.134-7-7
					S1593.127,1812.995,1596.993,1812.996L1596.993,1812.996z"/>
			</g>
		</g>
		<g>
			<g>
				<path id="agmpw" fill="#8081E1" d="M1469.995,1832.993c3.866,0,7,3.134,7,7s-3.134,7-7,7s-7-3.134-7-7
					S1466.129,1832.993,1469.995,1832.993z"/>
			</g>
		</g>
		<g>
			<g>
				<path id="agmpx" fill="#8081E1" d="M1490.995,1832.993c3.866,0,7,3.134,7,7s-3.134,7-7,7s-7-3.134-7-7
					S1487.129,1832.993,1490.995,1832.993z"/>
			</g>
		</g>
		<g>
			<g>
				<path id="agmpy" fill="#8081E1" d="M1511.994,1832.993c3.866,0,7,3.134,7,7s-3.134,7-7,7s-7-3.134-7-7
					S1508.128,1832.993,1511.994,1832.993z"/>
			</g>
		</g>
		<g>
			<g>
				<path id="agmpz" fill="#8081E1" d="M1533.994,1832.993c3.866,0,7,3.134,7,7s-3.134,7-7,7s-7-3.134-7-7
					S1530.128,1832.993,1533.994,1832.993z"/>
			</g>
		</g>
		<g>
			<g>
				<path id="agmpA" fill="#8081E1" d="M1554.994,1832.993c3.866,0,7,3.134,7,7s-3.134,7-7,7s-7-3.134-7-7
					S1551.128,1832.993,1554.994,1832.993L1554.994,1832.993z"/>
			</g>
		</g>
		<g>
			<g>
				<path id="agmpB" fill="#8081E1" d="M1575.993,1832.993c3.866,0,7,3.134,7,7s-3.134,7-7,7s-7-3.134-7-7
					S1572.127,1832.993,1575.993,1832.993z"/>
			</g>
		</g>
		<g>
			<g>
				<path id="agmpC" fill="#8081E1" d="M1596.993,1832.993c3.866,0,7,3.134,7,7s-3.134,7-7,7s-7-3.134-7-7
					S1593.127,1832.993,1596.993,1832.993z"/>
			</g>
		</g>
		<g>
			<g>
				<path id="agmpD" fill="#8081E1" d="M1469.995,1852.991c3.866,0,7,3.134,7,7s-3.134,7-7,7s-7-3.134-7-7
					S1466.129,1852.991,1469.995,1852.991z"/>
			</g>
		</g>
		<g>
			<g>
				<path id="agmpE" fill="#8081E1" d="M1490.995,1852.991c3.866,0,7,3.134,7,7s-3.134,7-7,7s-7-3.134-7-7
					S1487.129,1852.991,1490.995,1852.991z"/>
			</g>
		</g>
		<g>
			<g>
				<path id="agmpF" fill="#8081E1" d="M1511.994,1852.991c3.866,0,7,3.134,7,7s-3.134,7-7,7s-7-3.134-7-7
					S1508.128,1852.991,1511.994,1852.991z"/>
			</g>
		</g>
		<g>
			<g>
				<path id="agmpG" fill="#8081E1" d="M1533.994,1852.991c3.866,0,7,3.134,7,7s-3.134,7-7,7s-7-3.134-7-7
					S1530.128,1852.991,1533.994,1852.991z"/>
			</g>
		</g>
		<g>
			<g>
				<path id="agmpH" fill="#8081E1" d="M1554.994,1852.991c3.866,0,7,3.134,7,7s-3.134,7-7,7s-7-3.134-7-7
					S1551.128,1852.991,1554.994,1852.991L1554.994,1852.991z"/>
			</g>
		</g>
		<g>
			<g>
				<path id="agmpI" fill="#8081E1" d="M1575.993,1852.991c3.866,0,7,3.134,7,7s-3.134,7-7,7s-7-3.134-7-7
					S1572.127,1852.991,1575.993,1852.991z"/>
			</g>
		</g>
		<g>
			<g>
				<path id="agmpJ" fill="#8081E1" d="M1596.993,1852.991c3.866,0,7,3.134,7,7s-3.134,7-7,7s-7-3.134-7-7
					S1593.127,1852.991,1596.993,1852.991z"/>
			</g>
		</g>
		<g>
			<g>
				<path id="agmpK" fill="#8081E1" d="M1469.995,1872.989c3.866,0,7,3.134,7,7s-3.134,7-7,7s-7-3.134-7-7
					S1466.129,1872.989,1469.995,1872.989z"/>
			</g>
		</g>
		<g>
			<g>
				<path id="agmpL" fill="#8081E1" d="M1490.995,1872.989c3.866,0,7,3.134,7,7s-3.134,7-7,7s-7-3.134-7-7
					S1487.129,1872.989,1490.995,1872.989z"/>
			</g>
		</g>
		<g>
			<g>
				<path id="agmpM" fill="#8081E1" d="M1511.994,1872.989c3.866,0,7,3.134,7,7s-3.134,7-7,7s-7-3.134-7-7
					S1508.128,1872.989,1511.994,1872.989z"/>
			</g>
		</g>
		<g>
			<g>
				<path id="agmpN" fill="#8081E1" d="M1533.994,1872.989c3.866,0,7,3.134,7,7s-3.134,7-7,7s-7-3.134-7-7
					S1530.128,1872.989,1533.994,1872.989z"/>
			</g>
		</g>
		<g>
			<g>
				<path id="agmpO" fill="#8081E1" d="M1554.994,1872.989c3.866,0,7,3.134,7,7s-3.134,7-7,7s-7-3.134-7-7
					S1551.128,1872.989,1554.994,1872.989L1554.994,1872.989z"/>
			</g>
		</g>
		<g>
			<g>
				<path id="agmpP" fill="#8081E1" d="M1575.993,1872.989c3.866,0,7,3.134,7,7s-3.134,7-7,7s-7-3.134-7-7
					S1572.127,1872.989,1575.993,1872.989z"/>
			</g>
		</g>
		<g>
			<g>
				<path id="agmpQ" fill="#8081E1" d="M1596.993,1872.989c3.866,0,7,3.134,7,7s-3.134,7-7,7s-7-3.134-7-7
					S1593.127,1872.989,1596.993,1872.989z"/>
			</g>
		</g>
		<g>
			<g>
				<path id="agmpR" fill="#8081E1" d="M1469.995,1892.986c3.866,0,7,3.134,7,7c0,3.865-3.134,7-7,7s-7-3.135-7-7
					C1462.995,1896.12,1466.129,1892.986,1469.995,1892.986z"/>
			</g>
		</g>
		<g>
			<g>
				<path id="agmpS" fill="#8081E1" d="M1490.995,1892.986c3.866,0,7,3.134,7,7c0,3.865-3.134,7-7,7s-7-3.135-7-7
					C1483.995,1896.12,1487.129,1892.986,1490.995,1892.986z"/>
			</g>
		</g>
		<g>
			<g>
				<path id="agmpT" fill="#8081E1" d="M1511.994,1892.986c3.866,0,7,3.134,7,7c0,3.865-3.134,7-7,7s-7-3.135-7-7
					C1504.994,1896.12,1508.128,1892.986,1511.994,1892.986z"/>
			</g>
		</g>
		<g>
			<g>
				<path id="agmpU" fill="#8081E1" d="M1533.994,1892.986c3.866,0,7,3.134,7,7c0,3.865-3.134,7-7,7s-7-3.135-7-7
					C1526.994,1896.12,1530.128,1892.986,1533.994,1892.986z"/>
			</g>
		</g>
		<g>
			<g>
				<path id="agmpV" fill="#8081E1" d="M1554.994,1892.986c3.866,0,7,3.134,7,7c0,3.865-3.134,7-7,7s-7-3.135-7-7
					C1547.994,1896.12,1551.128,1892.986,1554.994,1892.986L1554.994,1892.986z"/>
			</g>
		</g>
		<g>
			<g>
				<path id="agmpW" fill="#8081E1" d="M1575.993,1892.986c3.866,0,7,3.134,7,7c0,3.865-3.134,7-7,7s-7-3.135-7-7
					C1568.993,1896.12,1572.127,1892.986,1575.993,1892.986z"/>
			</g>
		</g>
		<g>
			<g>
				<path id="agmpX" fill="#8081E1" d="M1596.993,1892.986c3.866,0,7,3.134,7,7c0,3.865-3.134,7-7,7s-7-3.135-7-7
					C1589.993,1896.12,1593.127,1892.986,1596.993,1892.986z"/>
			</g>
		</g>
	</g>
	<g transform="translate(79 -954)">
		<g>
			<path id="agmpY" fill="#ECBF8E" d="M1769.995,1472.004c-1.004-0.003-2.008,0.019-3.01,0.065c0,0-16.358,2.93-16.358,18.68
				c0,18.172,16.358,20.644,16.358,20.644c0.98-0.08,1.995-0.13,3.01-0.13c19.71,0,35.741,16.03,35.741,35.74
				c0,19.695-16.03,35.742-35.741,35.742s-35.742-16.047-35.742-35.741c0,0-1.465-16.357-18.733-16.357
				c-19.297,0-20.524,16.357-20.524,16.357c0,41.417,33.565,75,75,75c41.417,0,75-33.583,75-75
				C1844.995,1505.57,1811.412,1472.004,1769.995,1472.004z"/>
		</g>
	</g>
	<g transform="translate(79 -954)" opacity="0.5">
		<g>
			<path id="agmpZ" fill="#FE971D" d="M50.004,1330.47c33.895,0,61.47,27.573,61.47,61.465c0,33.893-27.574,61.466-61.469,61.466
				s-61.471-27.573-61.471-61.465C-11.466,1358.043,16.11,1330.47,50.004,1330.47C83.9,1330.47,50.004,1330.47,50.004,1330.47
				L50.004,1330.47z M-78.986,1391.935c0,71.232,57.751,128.977,128.99,128.977c71.239,0,128.989-57.744,128.989-128.977
				c0-71.23-57.75-128.976-128.99-128.976C-21.235,1262.959-78.985,1320.704-78.986,1391.935L-78.986,1391.935z"/>
		</g>
	</g>
</g>
</svg>
