<?xml version="1.0" standalone="no"?><!-- Generator: Gravit.io --><svg xmlns="http://www.w3.org/2000/svg" xmlns:xlink="http://www.w3.org/1999/xlink" style="isolation:isolate" viewBox="0 0 1054 668" width="1054" height="668"><defs><clipPath id="_clipPath_rsEjqgAQCIn2GXVPHnjUkFpvSy6auGHL"><rect width="1061.384" height="668.055"/></clipPath></defs><g clip-path="url(#_clipPath_rsEjqgAQCIn2GXVPHnjUkFpvSy6auGHL)"><g><path d=" M 1061.384 409.999 C 993.293 492.547 987.073 559.233 931.384 600.999 C 875.695 642.766 774.139 702.485 551.384 642.999 C 328.629 583.514 38.291 666.142 5.384 593.999 C -27.523 521.858 100.399 481.861 119.384 391.999 C 138.369 302.139 122.549 165.173 227.598 123.407 C 332.648 81.64 497.844 93.87 544.384 67 C 581.748 45.428 592.001 21.939 595.692 0 L 1061.384 0 L 1061.384 409.999 Z " fill="rgb(217,232,255)"/><path d=" M 1060.774 79.24 C 987.67 117.541 899.096 190.599 882.308 235.528 C 863.056 287.054 717.001 356.672 758.161 235.367 C 770.211 200.126 838.218 173.073 785.691 77.997 C 780.519 38.788 795.479 21.976 837.908 0 L 940.703 0 C 929.324 18.86 923.132 34.194 929.287 41.445 L 929.287 41.444 C 935.321 48.551 963.014 28.588 996.724 0 L 1060.774 0 L 1060.774 79.24 Z " fill="rgb(255,255,255)"/><g><path d=" M 751.502 112.057 C 768.899 112.057 783.002 117.042 783.002 134.439 C 783.002 151.836 768.899 175.056 751.502 175.056 C 734.105 175.056 720.002 151.836 720.002 134.439 C 720.002 117.042 734.105 112.057 751.502 112.057 L 751.502 112.057 Z " fill="rgb(255,255,255)"/></g></g></g></svg>