<?xml version="1.0" standalone="no"?><!-- Generator: Gravit.io --><svg xmlns="http://www.w3.org/2000/svg" xmlns:xlink="http://www.w3.org/1999/xlink" style="isolation:isolate" viewBox="69.5 20 1911 1216" width="1911" height="1216"><defs><clipPath id="_clipPath_88xFJGNEMC4Pp31OTiYAiAKewymSQ6Pk"><rect width="2050" height="1236"/></clipPath></defs><g clip-path="url(#_clipPath_88xFJGNEMC4Pp31OTiYAiAKewymSQ6Pk)"><g><path d=" M 50 -1 C 50 -1 178.544 167.303 416 101 C 653.456 34.697 703.743 191.443 1012 165 C 1320.257 138.557 1388.23 133.892 1593 200 C 1797.77 266.107 1986 96 1986 96 L 2050 1065 C 2050 1065 1906.725 1268.46 1757 1231 C 1607.275 1193.539 1369.239 1012.75 1083 1167 C 796.761 1321.25 543.404 1089.964 299 1112 C 54.596 1134.035 50 1072 50 1072 L 50 -1 Z " fill="rgb(217,232,255)"/></g><g><path d=" M 1784.49 551.007 C 1782.617 551.007 1780.775 551.037 1778.932 551.128 C 1778.932 551.128 1748.725 556.54 1748.725 585.623 C 1748.725 619.18 1778.932 623.746 1778.932 623.746 C 1780.781 623.589 1782.635 623.508 1784.49 623.504 C 1820.89 623.504 1850.493 653.108 1850.493 689.507 C 1850.493 725.877 1820.89 755.51 1784.49 755.51 C 1748.09 755.51 1718.488 725.876 1718.488 689.507 C 1718.488 689.507 1715.782 659.3 1683.891 659.3 C 1648.258 659.3 1645.991 689.507 1645.991 689.507 C 1645.991 765.992 1707.976 828.007 1784.491 828.007 C 1860.975 828.007 1922.99 765.992 1922.99 689.507 C 1922.99 612.993 1860.975 551.007 1784.49 551.007 Z " fill="rgb(236,191,142)"/></g><g><path d=" M 61.181 411.38 C 60.069 411.675 58.964 411.997 57.867 412.346 C 57.867 412.346 40.619 420.446 45.293 437.89 C 50.686 458.016 69.537 455.9 69.537 455.9 C 70.621 455.509 71.72 455.163 72.832 454.863 C 94.664 449.013 117.176 462.01 123.026 483.843 C 128.871 505.656 115.878 528.187 94.046 534.037 C 72.215 539.887 49.697 526.871 43.852 505.057 C 43.852 505.057 37.375 487.374 18.247 492.5 C -3.125 498.226 0.37 516.708 0.37 516.708 C 12.662 562.582 59.806 589.816 105.698 577.519 C 151.572 565.227 178.801 518.065 166.508 472.191 C 154.212 426.299 107.055 399.088 61.181 411.381 L 61.181 411.38 Z " fill="rgb(236,191,142)"/></g></g></svg>