<?xml version="1.0" standalone="no"?><!-- Generator: Gravit.io --><svg xmlns="http://www.w3.org/2000/svg" xmlns:xlink="http://www.w3.org/1999/xlink" style="isolation:isolate" viewBox="78 0 1936 1086" width="1936" height="1086"><defs><clipPath id="_clipPath_eiE8cAMpkgNMSJJ2pIKrlHxmkO9TIgqg"><rect width="2038" height="1086"/></clipPath></defs><g clip-path="url(#_clipPath_eiE8cAMpkgNMSJJ2pIKrlHxmkO9TIgqg)"><g><path d=" M 78 -1 C 78 -1 267.984 153.202 444 101 C 620.016 48.798 731.743 191.443 1040 165 C 1348.257 138.557 1416.23 133.893 1621 200 C 1825.77 266.107 2014 96 2014 96 L 2038 933 C 2038 933 1787.666 1160.306 1469 1061 C 1150.334 961.693 835.539 1141.25 669 1060 C 502.461 978.75 746.404 805.964 502 828 C 257.596 850.035 78 974 78 974 L 78 -1 Z " fill="rgb(217,232,255)"/></g><g><g><path d=" M 1047.042 814.344 C 1050.908 814.344 1054.042 817.478 1054.042 821.344 C 1054.042 825.21 1050.908 828.344 1047.042 828.344 C 1043.176 828.344 1040.042 825.21 1040.042 821.344 C 1040.042 817.478 1043.176 814.344 1047.042 814.344 Z " fill="rgb(128,129,225)"/></g><g><path d=" M 1068.042 814.344 C 1071.908 814.344 1075.042 817.478 1075.042 821.344 C 1075.042 825.21 1071.908 828.344 1068.042 828.344 C 1064.176 828.344 1061.042 825.21 1061.042 821.344 C 1061.042 817.478 1064.176 814.344 1068.042 814.344 Z " fill="rgb(128,129,225)"/></g><g><path d=" M 1089.042 814.344 C 1092.908 814.344 1096.042 817.478 1096.042 821.344 C 1096.042 825.21 1092.908 828.344 1089.042 828.344 C 1085.176 828.344 1082.042 825.21 1082.042 821.344 C 1082.042 817.478 1085.176 814.344 1089.042 814.344 Z " fill="rgb(128,129,225)"/></g><g><path d=" M 1111.042 814.344 C 1114.908 814.344 1118.042 817.478 1118.042 821.344 C 1118.042 825.21 1114.908 828.344 1111.042 828.344 C 1107.176 828.344 1104.042 825.21 1104.042 821.344 C 1104.042 817.478 1107.176 814.344 1111.042 814.344 Z " fill="rgb(128,129,225)"/></g><g><path d=" M 1132.042 814.344 C 1135.908 814.344 1139.042 817.478 1139.042 821.344 C 1139.042 825.21 1135.908 828.344 1132.042 828.344 C 1128.176 828.344 1125.042 825.21 1125.042 821.344 C 1125.042 817.478 1128.176 814.344 1132.042 814.344 Z " fill="rgb(128,129,225)"/></g><g><path d=" M 1153.042 814.344 C 1156.908 814.344 1160.042 817.478 1160.042 821.344 C 1160.042 825.21 1156.908 828.344 1153.042 828.344 C 1149.176 828.344 1146.042 825.21 1146.042 821.344 C 1146.042 817.478 1149.176 814.344 1153.042 814.344 Z " fill="rgb(128,129,225)"/></g><g><path d=" M 1174.042 814.344 C 1177.908 814.344 1181.042 817.478 1181.042 821.344 C 1181.042 825.21 1177.908 828.344 1174.042 828.344 C 1170.176 828.344 1167.042 825.21 1167.042 821.344 C 1167.042 817.478 1170.176 814.344 1174.042 814.344 Z " fill="rgb(128,129,225)"/></g><g><path d=" M 1047.042 834.344 C 1050.908 834.344 1054.042 837.478 1054.042 841.344 C 1054.042 845.21 1050.908 848.344 1047.042 848.344 C 1043.176 848.344 1040.042 845.21 1040.042 841.344 C 1040.042 837.478 1043.176 834.344 1047.042 834.344 Z " fill="rgb(128,129,225)"/></g><g><path d=" M 1068.042 834.344 C 1071.908 834.344 1075.042 837.478 1075.042 841.344 C 1075.042 845.21 1071.908 848.344 1068.042 848.344 C 1064.176 848.344 1061.042 845.21 1061.042 841.344 C 1061.042 837.478 1064.176 834.344 1068.042 834.344 Z " fill="rgb(128,129,225)"/></g><g><path d=" M 1089.042 834.344 C 1092.908 834.344 1096.042 837.478 1096.042 841.344 C 1096.042 845.21 1092.908 848.344 1089.042 848.344 C 1085.176 848.344 1082.042 845.21 1082.042 841.344 C 1082.042 837.478 1085.176 834.344 1089.042 834.344 Z " fill="rgb(128,129,225)"/></g><g><path d=" M 1111.042 834.344 C 1114.908 834.344 1118.042 837.478 1118.042 841.344 C 1118.042 845.21 1114.908 848.344 1111.042 848.344 C 1107.176 848.344 1104.042 845.21 1104.042 841.344 C 1104.042 837.478 1107.176 834.344 1111.042 834.344 Z " fill="rgb(128,129,225)"/></g><g><path d=" M 1132.042 834.344 C 1135.908 834.344 1139.042 837.478 1139.042 841.344 C 1139.042 845.21 1135.908 848.344 1132.042 848.344 C 1128.176 848.344 1125.042 845.21 1125.042 841.344 C 1125.042 837.478 1128.176 834.344 1132.042 834.344 Z " fill="rgb(128,129,225)"/></g><g><path d=" M 1153.042 834.344 C 1156.908 834.344 1160.042 837.478 1160.042 841.344 C 1160.042 845.21 1156.908 848.344 1153.042 848.344 C 1149.176 848.344 1146.042 845.21 1146.042 841.344 C 1146.042 837.478 1149.176 834.344 1153.042 834.344 Z " fill="rgb(128,129,225)"/></g><g><path d=" M 1174.042 834.344 C 1177.908 834.344 1181.042 837.478 1181.042 841.344 C 1181.042 845.21 1177.908 848.344 1174.042 848.344 C 1170.176 848.344 1167.042 845.21 1167.042 841.344 C 1167.042 837.478 1170.176 834.344 1174.042 834.344 Z " fill="rgb(128,129,225)"/></g><g><path d=" M 1047.042 854.344 C 1050.908 854.344 1054.042 857.478 1054.042 861.344 C 1054.042 865.21 1050.908 868.344 1047.042 868.344 C 1043.176 868.344 1040.042 865.21 1040.042 861.344 C 1040.042 857.478 1043.176 854.344 1047.042 854.344 Z " fill="rgb(128,129,225)"/></g><g><path d=" M 1068.042 854.344 C 1071.908 854.344 1075.042 857.478 1075.042 861.344 C 1075.042 865.21 1071.908 868.344 1068.042 868.344 C 1064.176 868.344 1061.042 865.21 1061.042 861.344 C 1061.042 857.478 1064.176 854.344 1068.042 854.344 Z " fill="rgb(128,129,225)"/></g><g><path d=" M 1089.042 854.344 C 1092.908 854.344 1096.042 857.478 1096.042 861.344 C 1096.042 865.21 1092.908 868.344 1089.042 868.344 C 1085.176 868.344 1082.042 865.21 1082.042 861.344 C 1082.042 857.478 1085.176 854.344 1089.042 854.344 Z " fill="rgb(128,129,225)"/></g><g><path d=" M 1111.042 854.344 C 1114.908 854.344 1118.042 857.478 1118.042 861.344 C 1118.042 865.21 1114.908 868.344 1111.042 868.344 C 1107.176 868.344 1104.042 865.21 1104.042 861.344 C 1104.042 857.478 1107.176 854.344 1111.042 854.344 Z " fill="rgb(128,129,225)"/></g><g><path d=" M 1132.042 854.344 C 1135.908 854.344 1139.042 857.478 1139.042 861.344 C 1139.042 865.21 1135.908 868.344 1132.042 868.344 C 1128.176 868.344 1125.042 865.21 1125.042 861.344 C 1125.042 857.478 1128.176 854.344 1132.042 854.344 Z " fill="rgb(128,129,225)"/></g><g><path d=" M 1153.042 854.344 C 1156.908 854.344 1160.042 857.478 1160.042 861.344 C 1160.042 865.21 1156.908 868.344 1153.042 868.344 C 1149.176 868.344 1146.042 865.21 1146.042 861.344 C 1146.042 857.478 1149.176 854.344 1153.042 854.344 Z " fill="rgb(128,129,225)"/></g><g><path d=" M 1174.042 854.344 C 1177.908 854.344 1181.042 857.478 1181.042 861.344 C 1181.042 865.21 1177.908 868.344 1174.042 868.344 C 1170.176 868.344 1167.042 865.21 1167.042 861.344 C 1167.042 857.478 1170.176 854.344 1174.042 854.344 Z " fill="rgb(128,129,225)"/></g><g><path d=" M 1047.042 874.344 C 1050.908 874.344 1054.042 877.478 1054.042 881.344 C 1054.042 885.21 1050.908 888.344 1047.042 888.344 C 1043.176 888.344 1040.042 885.21 1040.042 881.344 C 1040.042 877.478 1043.176 874.344 1047.042 874.344 Z " fill="rgb(128,129,225)"/></g><g><path d=" M 1068.042 874.344 C 1071.908 874.344 1075.042 877.478 1075.042 881.344 C 1075.042 885.21 1071.908 888.344 1068.042 888.344 C 1064.176 888.344 1061.042 885.21 1061.042 881.344 C 1061.042 877.478 1064.176 874.344 1068.042 874.344 Z " fill="rgb(128,129,225)"/></g><g><path d=" M 1089.042 874.344 C 1092.908 874.344 1096.042 877.478 1096.042 881.344 C 1096.042 885.21 1092.908 888.344 1089.042 888.344 C 1085.176 888.344 1082.042 885.21 1082.042 881.344 C 1082.042 877.478 1085.176 874.344 1089.042 874.344 Z " fill="rgb(128,129,225)"/></g><g><path d=" M 1111.042 874.344 C 1114.908 874.344 1118.042 877.478 1118.042 881.344 C 1118.042 885.21 1114.908 888.344 1111.042 888.344 C 1107.176 888.344 1104.042 885.21 1104.042 881.344 C 1104.042 877.478 1107.176 874.344 1111.042 874.344 Z " fill="rgb(128,129,225)"/></g><g><path d=" M 1132.042 874.344 C 1135.908 874.344 1139.042 877.478 1139.042 881.344 C 1139.042 885.21 1135.908 888.344 1132.042 888.344 C 1128.176 888.344 1125.042 885.21 1125.042 881.344 C 1125.042 877.478 1128.176 874.344 1132.042 874.344 Z " fill="rgb(128,129,225)"/></g><g><path d=" M 1153.042 874.344 C 1156.908 874.344 1160.042 877.478 1160.042 881.344 C 1160.042 885.21 1156.908 888.344 1153.042 888.344 C 1149.176 888.344 1146.042 885.21 1146.042 881.344 C 1146.042 877.478 1149.176 874.344 1153.042 874.344 Z " fill="rgb(128,129,225)"/></g><g><path d=" M 1174.042 874.344 C 1177.908 874.344 1181.042 877.478 1181.042 881.344 C 1181.042 885.21 1177.908 888.344 1174.042 888.344 C 1170.176 888.344 1167.042 885.21 1167.042 881.344 C 1167.042 877.478 1170.176 874.344 1174.042 874.344 Z " fill="rgb(128,129,225)"/></g><g><path d=" M 1047.042 894.344 C 1050.908 894.344 1054.042 897.478 1054.042 901.344 C 1054.042 905.21 1050.908 908.344 1047.042 908.344 C 1043.176 908.344 1040.042 905.21 1040.042 901.344 C 1040.042 897.478 1043.176 894.344 1047.042 894.344 Z " fill="rgb(128,129,225)"/></g><g><path d=" M 1068.042 894.344 C 1071.908 894.344 1075.042 897.478 1075.042 901.344 C 1075.042 905.21 1071.908 908.344 1068.042 908.344 C 1064.176 908.344 1061.042 905.21 1061.042 901.344 C 1061.042 897.478 1064.176 894.344 1068.042 894.344 Z " fill="rgb(128,129,225)"/></g><g><path d=" M 1089.042 894.344 C 1092.908 894.344 1096.042 897.478 1096.042 901.344 C 1096.042 905.21 1092.908 908.344 1089.042 908.344 C 1085.176 908.344 1082.042 905.21 1082.042 901.344 C 1082.042 897.478 1085.176 894.344 1089.042 894.344 Z " fill="rgb(128,129,225)"/></g><g><path d=" M 1111.042 894.344 C 1114.908 894.344 1118.042 897.478 1118.042 901.344 C 1118.042 905.21 1114.908 908.344 1111.042 908.344 C 1107.176 908.344 1104.042 905.21 1104.042 901.344 C 1104.042 897.478 1107.176 894.344 1111.042 894.344 Z " fill="rgb(128,129,225)"/></g><g><path d=" M 1132.042 894.344 C 1135.908 894.344 1139.042 897.478 1139.042 901.344 C 1139.042 905.21 1135.908 908.344 1132.042 908.344 C 1128.176 908.344 1125.042 905.21 1125.042 901.344 C 1125.042 897.478 1128.176 894.344 1132.042 894.344 Z " fill="rgb(128,129,225)"/></g><g><path d=" M 1153.042 894.344 C 1156.908 894.344 1160.042 897.478 1160.042 901.344 C 1160.042 905.21 1156.908 908.344 1153.042 908.344 C 1149.176 908.344 1146.042 905.21 1146.042 901.344 C 1146.042 897.478 1149.176 894.344 1153.042 894.344 Z " fill="rgb(128,129,225)"/></g><g><path d=" M 1174.042 894.344 C 1177.908 894.344 1181.042 897.478 1181.042 901.344 C 1181.042 905.21 1177.908 908.344 1174.042 908.344 C 1170.176 908.344 1167.042 905.21 1167.042 901.344 C 1167.042 897.478 1170.176 894.344 1174.042 894.344 Z " fill="rgb(128,129,225)"/></g><g><path d=" M 1047.042 914.344 C 1050.908 914.344 1054.042 917.478 1054.042 921.344 C 1054.042 925.21 1050.908 928.344 1047.042 928.344 C 1043.176 928.344 1040.042 925.21 1040.042 921.344 C 1040.042 917.478 1043.176 914.344 1047.042 914.344 Z " fill="rgb(128,129,225)"/></g><g><path d=" M 1068.042 914.344 C 1071.908 914.344 1075.042 917.478 1075.042 921.344 C 1075.042 925.21 1071.908 928.344 1068.042 928.344 C 1064.176 928.344 1061.042 925.21 1061.042 921.344 C 1061.042 917.478 1064.176 914.344 1068.042 914.344 Z " fill="rgb(128,129,225)"/></g><g><path d=" M 1089.042 914.344 C 1092.908 914.344 1096.042 917.478 1096.042 921.344 C 1096.042 925.21 1092.908 928.344 1089.042 928.344 C 1085.176 928.344 1082.042 925.21 1082.042 921.344 C 1082.042 917.478 1085.176 914.344 1089.042 914.344 Z " fill="rgb(128,129,225)"/></g><g><path d=" M 1111.042 914.344 C 1114.908 914.344 1118.042 917.478 1118.042 921.344 C 1118.042 925.21 1114.908 928.344 1111.042 928.344 C 1107.176 928.344 1104.042 925.21 1104.042 921.344 C 1104.042 917.478 1107.176 914.344 1111.042 914.344 Z " fill="rgb(128,129,225)"/></g><g><path d=" M 1132.042 914.344 C 1135.908 914.344 1139.042 917.478 1139.042 921.344 C 1139.042 925.21 1135.908 928.344 1132.042 928.344 C 1128.176 928.344 1125.042 925.21 1125.042 921.344 C 1125.042 917.478 1128.176 914.344 1132.042 914.344 Z " fill="rgb(128,129,225)"/></g><g><path d=" M 1153.042 914.344 C 1156.908 914.344 1160.042 917.478 1160.042 921.344 C 1160.042 925.21 1156.908 928.344 1153.042 928.344 C 1149.176 928.344 1146.042 925.21 1146.042 921.344 C 1146.042 917.478 1149.176 914.344 1153.042 914.344 Z " fill="rgb(128,129,225)"/></g><g><path d=" M 1174.042 914.344 C 1177.908 914.344 1181.042 917.478 1181.042 921.344 C 1181.042 925.21 1177.908 928.344 1174.042 928.344 C 1170.176 928.344 1167.042 925.21 1167.042 921.344 C 1167.042 917.478 1170.176 914.344 1174.042 914.344 Z " fill="rgb(128,129,225)"/></g><g><path d=" M 1047.042 934.344 C 1050.908 934.344 1054.042 937.478 1054.042 941.344 C 1054.042 945.21 1050.908 948.344 1047.042 948.344 C 1043.176 948.344 1040.042 945.21 1040.042 941.344 C 1040.042 937.478 1043.176 934.344 1047.042 934.344 Z " fill="rgb(128,129,225)"/></g><g><path d=" M 1068.042 934.344 C 1071.908 934.344 1075.042 937.478 1075.042 941.344 C 1075.042 945.21 1071.908 948.344 1068.042 948.344 C 1064.176 948.344 1061.042 945.21 1061.042 941.344 C 1061.042 937.478 1064.176 934.344 1068.042 934.344 Z " fill="rgb(128,129,225)"/></g><g><path d=" M 1089.042 934.344 C 1092.908 934.344 1096.042 937.478 1096.042 941.344 C 1096.042 945.21 1092.908 948.344 1089.042 948.344 C 1085.176 948.344 1082.042 945.21 1082.042 941.344 C 1082.042 937.478 1085.176 934.344 1089.042 934.344 Z " fill="rgb(128,129,225)"/></g><g><path d=" M 1111.042 934.344 C 1114.908 934.344 1118.042 937.478 1118.042 941.344 C 1118.042 945.21 1114.908 948.344 1111.042 948.344 C 1107.176 948.344 1104.042 945.21 1104.042 941.344 C 1104.042 937.478 1107.176 934.344 1111.042 934.344 Z " fill="rgb(128,129,225)"/></g><g><path d=" M 1132.042 934.344 C 1135.908 934.344 1139.042 937.478 1139.042 941.344 C 1139.042 945.21 1135.908 948.344 1132.042 948.344 C 1128.176 948.344 1125.042 945.21 1125.042 941.344 C 1125.042 937.478 1128.176 934.344 1132.042 934.344 Z " fill="rgb(128,129,225)"/></g><g><path d=" M 1153.042 934.344 C 1156.908 934.344 1160.042 937.478 1160.042 941.344 C 1160.042 945.21 1156.908 948.344 1153.042 948.344 C 1149.176 948.344 1146.042 945.21 1146.042 941.344 C 1146.042 937.478 1149.176 934.344 1153.042 934.344 Z " fill="rgb(128,129,225)"/></g><g><path d=" M 1174.042 934.344 C 1177.908 934.344 1181.042 937.478 1181.042 941.344 C 1181.042 945.21 1177.908 948.344 1174.042 948.344 C 1170.176 948.344 1167.042 945.21 1167.042 941.344 C 1167.042 937.478 1170.176 934.344 1174.042 934.344 Z " fill="rgb(128,129,225)"/></g></g><g style="opacity:0.5;"><path d=" M 128.975 403.516 C 162.87 403.516 190.446 431.093 190.446 464.988 C 190.446 498.884 162.87 526.461 128.975 526.461 C 95.079 526.461 67.503 498.884 67.503 464.989 C 67.503 431.093 95.079 403.516 128.975 403.516 C 162.87 403.516 128.975 403.516 128.975 403.516 Z  M -0.016 464.988 C -0.016 536.228 57.734 593.98 128.974 593.98 C 200.214 593.98 257.966 536.228 257.966 464.988 C 257.966 393.748 200.214 335.998 128.975 335.998 C 57.735 335.998 -0.016 393.748 -0.016 464.988 L -0.016 464.988 Z " fill="rgb(254,151,29)"/></g></g></svg>