<svg xmlns="http://www.w3.org/2000/svg" xmlns:xlink="http://www.w3.org/1999/xlink" width="130" height="27" viewBox="0 0 130 27"><defs><path id="37g1a" d="M842.436 869.924c-1.113 0-1.914.363-2.726.733v8.386c.78.076 1.223.076 1.963.076 2.67 0 3.034-1.221 3.034-2.923v-4.007c0-1.256-.417-2.266-2.271-2.266-1.855 0 0 0 0 0zm-17.721-.458c-1.852 0-2.274 1.014-2.274 2.27v.705h4.545v-.705c0-1.256-.422-2.27-2.271-2.27-1.85 0 0 0 0 0zm-34.33 8.73c0 .992.47 1.508 1.507 1.508 1.113 0 1.77-.361 2.583-.734v-1.988h-2.433c-1.151 0-1.656.213-1.656 1.214 0 1 0 0 0 0zm69.29-8.272c-1.854 0-2.497 1.01-2.497 2.265v4.59c0 1.26.643 2.273 2.497 2.273 1.849 0 2.497-1.013 2.497-2.273v-4.59c0-1.256-.648-2.265-2.497-2.265-1.85 0 0 0 0 0zm-78.378 13.415h-5.45v-13.166h-2.725v-4.539h2.724v-2.724c0-3.701 1.538-5.903 5.907-5.903h3.638v4.538h-2.273c-1.701 0-1.814.635-1.814 1.818l-.007 2.272h4.12l-.482 4.538h-3.638zm18.63.034h-4.542l-.196-1.146a10.437 10.437 0 0 1-5.148 1.333c-3.333 0-5.106-2.221-5.106-5.294 0-3.623 2.07-4.917 5.772-4.917h3.768v-.783c0-1.85-.213-2.393-3.063-2.393h-4.662l.456-4.539h5.095c6.255 0 7.627 1.973 7.627 6.968zm15.45-12.868c-2.827-.483-3.638-.59-4.999-.59-2.443 0-3.182.539-3.182 2.608v3.918c0 2.071.739 2.61 3.182 2.61 1.36 0 2.172-.107 5-.593v4.425c-2.477.556-4.09.701-5.454.701-5.853 0-8.178-3.071-8.178-7.509v-3.179c0-4.44 2.325-7.517 8.178-7.517 1.364 0 2.977.147 5.454.702zm17.06 5.57h-9.996v.366c0 2.071.739 2.61 3.181 2.61 2.197 0 3.537-.107 6.359-.593v4.425c-2.721.556-4.139.701-6.81.701-5.853 0-8.181-3.071-8.181-7.509v-3.634c0-3.881 1.728-7.062 7.725-7.062 5.998 0 7.722 3.143 7.722 7.062zm17.721.084c0 4.288-1.228 7.417-8.669 7.417-2.685 0-4.263-.237-7.229-.693V858.37l5.45-.906v8.574c1.177-.437 2.702-.658 4.09-.658 5.451 0 6.358 2.439 6.358 6.357zm17.47.094c0 3.7-1.532 7.288-7.935 7.288-6.408 0-7.967-3.589-7.967-7.288v-3.573c0-3.7 1.56-7.289 7.967-7.289 6.403 0 7.934 3.589 7.934 7.29zm17.455 0c0 3.7-1.532 7.288-7.933 7.288-6.408 0-7.968-3.589-7.968-7.288v-3.573c0-3.7 1.56-7.289 7.968-7.289 6.4 0 7.933 3.589 7.933 7.29zM903 883.339h-5.909l-4.996-8.32v8.32h-5.45v-24.97l5.45-.906v16.074l4.996-7.903H903l-5.455 8.625zm-25.87-13.415c-1.85 0-2.493 1.01-2.493 2.265v4.59c0 1.26.642 2.273 2.493 2.273 1.85 0 2.503-1.013 2.503-2.273v-4.59c0-1.256-.654-2.265-2.503-2.265-1.849 0 0 0 0 0z"/></defs><g><g transform="translate(-773 -857)"><use fill="#abcdff" xlink:href="#37g1a"/></g></g></svg>