<svg xmlns="http://www.w3.org/2000/svg" xmlns:xlink="http://www.w3.org/1999/xlink" width="91" height="84" viewBox="0 0 91 84"><defs><path id="f4noa" d="M571.957 4249.166c22.092 0 40 11.909 40 34 0 22.092-17.909 46-40 46s-42-24.908-42-47c0-22.09 19.909-33 42-33z"/><path id="f4nob" d="M579.866 4253.858c19.132 11.046 28.687 30.314 17.641 49.445-11.046 19.132-38.51 30.883-57.64 19.837-19.133-11.046-23.92-42.57-12.874-61.702 11.046-19.132 33.741-18.626 52.873-7.58z"/><path id="f4noc" d="M576.947 4300.274c-.008.013-.022.016-.031.028-3.522 3.945-8.58 6.486-14.225 6.68l-.389.01c-.1.004-.2.007-.302.007-.102 0-.202-.003-.304-.006l-.388-.01v-.001c-5.64-.193-10.692-2.729-14.213-6.666-.013-.015-.031-.024-.044-.041-.004-.006-.004-.013-.009-.019A19.916 19.916 0 0 1 542 4287c0-5.287 2.066-10.098 5.43-13.678v-.001c.002-.004.006-.006.009-.009 3.503-3.723 8.41-6.107 13.869-6.294l.389-.011c.1-.004.201-.007.303-.007.101 0 .202.003.302.007l.39.01v.001c5.46.187 10.367 2.57 13.87 6.294l.009.009c3.362 3.58 5.429 8.392 5.429 13.68 0 5.081-1.91 9.724-5.043 13.256-.004.006-.004.013-.01.018zm-29.201-1.31a25.442 25.442 0 0 1 5.594-2.85 25.488 25.488 0 0 1-1.666-8.425h-8.278a18.534 18.534 0 0 0 4.35 11.274zm-4.35-12.654h8.278c.084-3.145.73-6.199 1.897-9.031a25.371 25.371 0 0 1-5.449-2.678 18.539 18.539 0 0 0-4.726 11.709zm32.481-11.709a25.372 25.372 0 0 1-5.448 2.678 25.468 25.468 0 0 1 1.896 9.03h8.278a18.539 18.539 0 0 0-4.726-11.708zm-14.567-5.778a24.133 24.133 0 0 0-5.842 7.61c1.891.532 3.848.83 5.842.885zm-6.418 8.883a24.093 24.093 0 0 0-1.839 8.604h8.257v-7.612a25.455 25.455 0 0 1-6.418-.992zm7.797 8.604h8.258a24.09 24.09 0 0 0-1.839-8.604 25.437 25.437 0 0 1-6.419.992zm5.842-9.876a24.133 24.133 0 0 0-5.842-7.611v8.495a24.092 24.092 0 0 0 5.842-.884zm6.368-2.845a18.57 18.57 0 0 0-10.471-5.047 25.475 25.475 0 0 1 5.44 7.472 23.977 23.977 0 0 0 5.031-2.425zm-15.327-5.047a18.568 18.568 0 0 0-10.47 5.047 23.956 23.956 0 0 0 5.03 2.425 25.463 25.463 0 0 1 5.44-7.472zm-4.925 27.132a25.439 25.439 0 0 1 6.663-1.062v-6.923h-8.257a24.084 24.084 0 0 0 1.594 7.985zm.536 1.283a24.114 24.114 0 0 0 6.127 8.219v-9.185a24.05 24.05 0 0 0-6.127.966zm13.633 0a24.065 24.065 0 0 0-6.127-.966v9.185a24.112 24.112 0 0 0 6.127-8.22zm.535-1.282a24.075 24.075 0 0 0 1.595-7.986h-8.257v6.923c2.281.06 4.516.416 6.662 1.063zm1.309.44a25.44 25.44 0 0 1 5.594 2.848 18.53 18.53 0 0 0 4.35-11.274h-8.279a25.467 25.467 0 0 1-1.665 8.425zm-11.089 9.342a25.446 25.446 0 0 1-5.704-8.068 24.05 24.05 0 0 0-5.184 2.607 18.581 18.581 0 0 0 10.888 5.46zm15.745-5.46a24.067 24.067 0 0 0-5.184-2.608 25.434 25.434 0 0 1-5.704 8.068 18.581 18.581 0 0 0 10.888-5.46z"/></defs><g><g opacity=".5" transform="translate(-521 -4246)"><use fill="#fdaa28" xlink:href="#f4noa"/></g><g transform="translate(-521 -4246)"><use fill="#fdaa28" xlink:href="#f4nob"/></g><g transform="translate(-521 -4246)"><use fill="#404095" xlink:href="#f4noc"/></g></g></svg>