<svg xmlns="http://www.w3.org/2000/svg" xmlns:xlink="http://www.w3.org/1999/xlink" width="91" height="84" viewBox="0 0 91 84"><defs><path id="ccufa" d="M968.957 3969.166c22.092 0 40 11.91 40 34 0 22.092-17.908 46-40 46-22.091 0-42-24.908-42-47 0-22.09 19.909-33 42-33z"/><path id="ccufb" d="M976.866 3973.858c19.132 11.046 28.687 30.314 17.641 49.446-11.046 19.131-38.51 30.882-57.64 19.836-19.133-11.045-23.92-42.57-12.874-61.703 11.046-19.131 33.741-18.625 52.873-7.579z"/><path id="ccufc" d="M959.626 4012.666a2.968 2.968 0 0 1-1.744-5.37l10.782-7.807a.835.835 0 0 1 1.164 1.166l-7.798 10.786a2.963 2.963 0 0 1-2.404 1.225zm-.92-2.049c.271.272.643.403 1.022.378.381-.03.728-.224.953-.533l4.757-6.58-6.577 4.761a1.302 1.302 0 0 0-.154 1.974zm22.804-2.118c0 4.075-1.093 7.897-2.996 11.197-.008.017-.007.036-.017.053-.014.025-.034.043-.05.065a22.66 22.66 0 0 1-8.14 8.134c-.015.01-.025.027-.041.037-.025.015-.053.02-.079.032a22.33 22.33 0 0 1-11.01 2.978c-.006 0-.012.004-.018.004l-.015-.003c-.041 0-.08.003-.121.003a22.48 22.48 0 0 1-5.045-.577.833.833 0 0 1-.626-.998.83.83 0 0 1 .998-.626c1.313.302 2.648.469 3.977.515v-1.647a.832.832 0 1 1 1.666 0v1.64a20.644 20.644 0 0 0 8.709-2.371l-.822-1.422a.833.833 0 1 1 1.443-.834l.819 1.42a20.99 20.99 0 0 0 6.473-6.477l-1.419-.82a.833.833 0 0 1 .833-1.442l1.422.82a20.693 20.693 0 0 0 2.373-8.849h-1.645a.832.832 0 1 1 0-1.666h1.645a20.688 20.688 0 0 0-2.373-8.849l-1.422.821a.832.832 0 0 1-1.138-.305.833.833 0 0 1 .304-1.138l1.418-.819a20.983 20.983 0 0 0-6.473-6.476l-.819 1.418a.831.831 0 0 1-1.137.306.834.834 0 0 1-.305-1.139l.82-1.423a20.657 20.657 0 0 0-8.707-2.37v1.641a.832.832 0 1 1-1.666 0v-1.647c-.245.011-.496.027-.77.048l-.893.068c-.776.09-1.55.222-2.316.398a.832.832 0 1 1-.372-1.624c.888-.204 1.786-.35 2.685-.446v-.963h-1.25a2.085 2.085 0 0 1 0-4.167h7.497a2.085 2.085 0 0 1 0 4.167h-1.249v.992a22.322 22.322 0 0 1 8.556 2.837c.018.01.036.008.053.018.017.01.026.026.042.037a22.609 22.609 0 0 1 4.005 2.972l1.79-1.79-1.18-1.18 3.535-3.534 3.533 3.535-3.533 3.536-1.178-1.178-1.789 1.79a22.662 22.662 0 0 1 2.969 4.007c.01.016.027.024.037.04.009.019.009.037.017.055a22.357 22.357 0 0 1 2.995 11.196zm-4.23-19.446l1.178 1.18 1.177-1.18-1.177-1.178zm-18.667-3.042c.137-.002.273-.012.41-.012l.063.002.073-.002c.266 0 .543.006.833.018v-2.518h2.915c.229 0 .416-.188.416-.416a.418.418 0 0 0-.416-.417h-7.496a.418.418 0 0 0 0 .833h2.915v2.518c.1-.004.19-.004.287-.006zm-6.117 7.488c0 .46-.372.833-.833.833h-4.164a.832.832 0 1 1 0-1.666h4.164c.46 0 .833.372.833.833zm0 5.833a.832.832 0 0 1-.833.833h-8.329a.832.832 0 1 1 0-1.666h8.329c.46 0 .833.373.833.833zm0 5.834c0 .46-.372.833-.833.833H939.17a.833.833 0 1 1 0-1.667h12.493c.46 0 .833.373.833.834zm0 5.833c0 .46-.372.833-.833.833h-15.824a.832.832 0 1 1 0-1.666h15.824c.46 0 .833.372.833.833zm0 5.833a.832.832 0 0 1-.833.834h-10.827a.832.832 0 1 1 0-1.667h10.827c.46 0 .833.373.833.833zm0 5.834a.832.832 0 0 1-.833.833h-5.83a.832.832 0 1 1 0-1.666h5.83c.46 0 .833.372.833.833z"/></defs><g><g opacity=".5" transform="translate(-918 -3966)"><use fill="#fdaa28" xlink:href="#ccufa"/></g><g transform="translate(-918 -3966)"><use fill="#fdaa28" xlink:href="#ccufb"/></g><g transform="translate(-918 -3966)"><use fill="#363f5a" xlink:href="#ccufc"/></g></g></svg>