<svg xmlns="http://www.w3.org/2000/svg" xmlns:xlink="http://www.w3.org/1999/xlink" width="92" height="84" viewBox="0 0 92 84"><defs><path id="rr1la" d="M974.957 4249.166c22.092 0 40 11.909 40 34 0 22.092-17.908 46-40 46-22.091 0-42-24.908-42-47 0-22.09 19.909-33 42-33z"/><path id="rr1lb" d="M981.866 4253.858c19.132 11.046 28.687 30.314 17.641 49.445-11.046 19.132-38.51 30.883-57.641 19.837-19.132-11.046-23.919-42.57-12.873-61.702 11.046-19.132 33.741-18.626 52.873-7.58z"/><path id="rr1lc" d="M973.854 4277.014v1.08h3.06c.608 0 1.102.51 1.102 1.142v7.523c0 .631-.494 1.143-1.102 1.143h-3.06v16.006c0 1.704-1.338 3.091-2.983 3.091h-15.883c-1.645 0-2.984-1.387-2.984-3.09v-32.818c0-1.705 1.339-3.092 2.984-3.092h15.883c1.418 0 2.607 1.031 2.908 2.408h2.067c1.196 0 2.17 1.009 2.17 2.25v2.107c0 1.24-.974 2.25-2.17 2.25zm0-2.285h1.957v-2.037h-1.957zm-2.205-3.638c0-.445-.35-.807-.778-.807h-15.883c-.43 0-.779.362-.779.807v32.817c0 .444.35.806.779.806h15.883c.429 0 .778-.362.778-.806zm2.205 9.288v5.238h1.957v-5.238zm-4.79 1.64v18.056c0 .631-.494 1.143-1.103 1.143h-10.144c-.609 0-1.102-.512-1.102-1.143v-18.056c0-.631.493-1.142 1.102-1.142h10.144c.609 0 1.102.51 1.102 1.142zm-2.206 1.142h-7.939v15.772h7.94zm-6.95 12.01v-8.113c0-1.58 1.743-2.991 3.242-2.991 1.787 0 3.242 1.51 3.242 3.364 0 1.856-1.454 3.365-3.242 3.365a3.1 3.1 0 0 1-1.038-.178v1.366a3.116 3.116 0 0 1 1.038-.177c1.787 0 3.242 1.509 3.242 3.364 0 1.856-1.454 3.365-3.242 3.365s-3.243-1.51-3.243-3.365zm2.204-7.74c0 .596.465 1.08 1.038 1.08.572 0 1.037-.484 1.037-1.08 0-.595-.465-1.079-1.037-1.079-.573 0-1.038.484-1.038 1.08zm0 7.74c0 .595.465 1.08 1.038 1.08.572 0 1.037-.485 1.037-1.08 0-.595-.465-1.08-1.037-1.08-.573 0-1.038.485-1.038 1.08zm-5.556-21.436c-.61 0-1.103-.513-1.103-1.145s.494-1.144 1.103-1.144 1.102.512 1.102 1.144c0 .632-.493 1.145-1.102 1.145zm3.294 0c-.609 0-1.102-.513-1.102-1.145s.493-1.144 1.102-1.144c.609 0 1.103.512 1.103 1.144 0 .632-.494 1.145-1.103 1.145zm3.294 0c-.608 0-1.102-.513-1.102-1.145s.494-1.144 1.102-1.144c.61 0 1.103.512 1.103 1.144 0 .632-.494 1.145-1.103 1.145zm-6.588 3.28c-.61 0-1.103-.512-1.103-1.144 0-.632.494-1.144 1.103-1.144s1.102.512 1.102 1.144c0 .632-.493 1.145-1.102 1.145zm3.294 0c-.609 0-1.102-.512-1.102-1.144 0-.632.493-1.144 1.102-1.144.609 0 1.103.512 1.103 1.144 0 .632-.494 1.145-1.103 1.145zm3.294 0c-.608 0-1.102-.512-1.102-1.144 0-.632.494-1.144 1.102-1.144.61 0 1.103.512 1.103 1.144 0 .632-.494 1.145-1.103 1.145z"/></defs><g><g opacity=".5" transform="translate(-923 -4246)"><use fill="#fdaa28" xlink:href="#rr1la"/></g><g transform="translate(-923 -4246)"><use fill="#fdaa28" xlink:href="#rr1lb"/></g><g transform="translate(-923 -4246)"><use fill="#404095" xlink:href="#rr1lc"/></g></g></svg>