<svg xmlns="http://www.w3.org/2000/svg" xmlns:xlink="http://www.w3.org/1999/xlink" width="91" height="84" viewBox="0 0 91 84"><defs><path id="hlnua" d="M1377.957 4249.166c22.092 0 40 11.909 40 34 0 22.092-17.908 46-40 46-22.091 0-42-24.908-42-47 0-22.09 19.909-33 42-33z"/><path id="hlnub" d="M1385.866 4253.858c19.132 11.046 28.687 30.314 17.641 49.445-11.046 19.132-38.51 30.883-57.64 19.837-19.133-11.046-23.92-42.57-12.874-61.702 11.046-19.132 33.741-18.626 52.873-7.58z"/><path id="hlnuc" d="M1386 4284.333v22.666h-40v-26.666h8v-13.334h18.161l.266.222 5.573 4.807v12.305zm-13.334-12.667h2.873l-2.873-2.48zm-17.333-3.333v12.765l4.758 3.235h16.575v-11.334h-5.333v-4.666zm-8 16h10.385l-3.924-2.667h-6.46zm36.586 21.333l-1.852-16.667h-32.135l-1.854 16.667zm.747-5.37v-14.63h-37.333v14.63l1.401-12.63h34.531zm-24-30.63h8v1.333h-8zm-3.333 2.667h5.333v1.333h-5.333zm0 3.333h11.333V4277h-11.333zm0 3.333h6v1.334h-6zm8 0h9.333v1.334h-9.333z"/></defs><g><g opacity=".5" transform="translate(-1327 -4246)"><use fill="#fdaa28" xlink:href="#hlnua"/></g><g transform="translate(-1327 -4246)"><use fill="#fdaa28" xlink:href="#hlnub"/></g><g transform="translate(-1327 -4246)"><use fill="#404095" xlink:href="#hlnuc"/></g></g></svg>