<svg xmlns="http://www.w3.org/2000/svg" xmlns:xlink="http://www.w3.org/1999/xlink" width="91" height="84" viewBox="0 0 91 84"><defs><path id="ahvra" d="M575.957 3969.166c22.092 0 40 11.91 40 34 0 22.092-17.908 46-40 46-22.091 0-42-24.908-42-47 0-22.09 19.909-33 42-33z"/><path id="ahvrb" d="M583.866 3973.858c19.132 11.046 28.687 30.314 17.641 49.446-11.046 19.131-38.51 30.882-57.64 19.836-19.133-11.045-23.92-42.57-12.874-61.703 11.046-19.131 33.741-18.625 52.873-7.579z"/><path id="ahvrc" d="M577.62 4027.64a21.264 21.264 0 0 1-11.51 3.36c-5.638 0-10.94-2.164-14.928-6.09-3.987-3.928-6.183-9.15-6.183-14.704 0-4.163 1.245-8.18 3.6-11.618a.982.982 0 0 1 1.35-.258c.444.296.562.89.261 1.329a18.581 18.581 0 0 0-3.268 10.547c0 10.41 8.6 18.879 19.169 18.879 3.727 0 7.34-1.054 10.448-3.048a.98.98 0 0 1 1.344.28.947.947 0 0 1-.284 1.323zm3.561-2.872l-.04.04a.975.975 0 0 1-.69.283.976.976 0 0 1-.684-.277.947.947 0 0 1-.006-1.354l.033-.032a.983.983 0 0 1 1.374-.014c.383.371.389.977.013 1.354zm3.464-27.537l-1.165 1.147a20.426 20.426 0 0 1 3.743 11.829 20.51 20.51 0 0 1-3.17 10.965.975.975 0 0 1-.827.452.978.978 0 0 1-.512-.145.948.948 0 0 1-.312-1.318 18.621 18.621 0 0 0 2.878-9.954c0-10.411-8.6-18.88-19.169-18.88a19.29 19.29 0 0 0-10.538 3.107.982.982 0 0 1-1.346-.272.95.95 0 0 1 .276-1.327 21.183 21.183 0 0 1 7.818-3.087v-1.624h-2.138a.964.964 0 0 1-.971-.957v-4.21c0-.53.435-.958.971-.958h11.856c.536 0 .971.429.971.957v4.211a.965.965 0 0 1-.971.957H569.9v1.622a21.041 21.041 0 0 1 8.22 3.353l1.164-1.147-.46-.452a.95.95 0 0 1 0-1.354l1.619-1.594a2.963 2.963 0 0 1 2.092-.853c.79 0 1.533.303 2.092.853l3.469 3.417a2.886 2.886 0 0 1 0 4.12l-1.619 1.595a.977.977 0 0 1-.687.28.977.977 0 0 1-.687-.28zm-16.688-7.739zm0 0v-1.368h-3.692v1.368a21.674 21.674 0 0 1 3.692 0zm3.11-3.282v-2.297h-9.912v2.297zm12.203 9.668l-2.611-2.572-.982.967a21.348 21.348 0 0 1 2.611 2.572zm2.062-.677v.001l.459.452.931-.918a.99.99 0 0 0 0-1.414l-3.469-3.416a1.016 1.016 0 0 0-.717-.292c-.271 0-.526.103-.718.292l-.931.917.459.453zm-18.25 2.397v2.105a.965.965 0 0 1-.97.958.965.965 0 0 1-.973-.958v-2.105c0-.529.435-.957.972-.957.537 0 .972.428.972.957zm9.053 3.693a.957.957 0 0 1-.285.676.986.986 0 0 1-.687.28.986.986 0 0 1-.687-.28.955.955 0 0 1-.285-.676c0-.252.104-.499.285-.677a.986.986 0 0 1 1.374 0c.18.178.285.425.285.677zm3.749 8.915a.965.965 0 0 1-.972.957h-2.137a.965.965 0 0 1-.972-.957c0-.528.435-.957.972-.957h2.137c.537 0 .972.429.972.957zm-3.75 8.915a.954.954 0 0 1-.284.676.981.981 0 0 1-1.374 0 .951.951 0 0 1-.285-.676c0-.252.104-.499.285-.677a.986.986 0 0 1 .687-.28c.255 0 .506.102.687.28.18.18.285.425.285.677zm-9.051 1.587v2.106a.965.965 0 0 1-.972.957.965.965 0 0 1-.972-.957v-2.106c0-.528.435-.956.972-.956.537 0 .972.428.972.956zm-9.052-1.587a.953.953 0 0 1-.285.676.981.981 0 0 1-1.374 0 .953.953 0 0 1-.284-.676c0-.252.103-.499.284-.677a.985.985 0 0 1 1.374 0c.181.178.285.425.285.677zm-1.612-8.915a.965.965 0 0 1-.972.957h-2.137a.965.965 0 0 1-.972-.957c0-.528.435-.957.972-.957h2.137c.537 0 .972.429.972.957zm1.612-8.915a.956.956 0 0 1-.285.676.985.985 0 0 1-1.374 0 .956.956 0 0 1-.284-.676c0-.252.103-.499.284-.677a.985.985 0 0 1 1.374 0c.181.178.285.425.285.677zm15.811 2.615l-4.855 7.899a3.316 3.316 0 0 1-2.876 1.656c-1.822 0-3.304-1.461-3.304-3.255a3.237 3.237 0 0 1 1.68-2.832l8.02-4.782a.984.984 0 0 1 1.191.142.947.947 0 0 1 .144 1.172zm-6.37 6.3c0-.739-.611-1.34-1.361-1.34-.23 0-.446.057-.636.157l-.132.078a1.333 1.333 0 0 0-.592 1.105c0 .739.61 1.34 1.36 1.34.465 0 .876-.232 1.121-.583l.08-.131c.102-.186.16-.4.16-.625zm2.66-3.96l-2.149 1.28c.332.226.62.51.848.836zm12.813 3.96c0 9.142-7.552 16.579-16.834 16.579s-16.833-7.437-16.833-16.579 7.551-16.579 16.833-16.579c9.282 0 16.834 7.437 16.834 16.579zm-1.944 0c0-8.086-6.68-14.665-14.89-14.665s-14.89 6.579-14.89 14.665c0 8.087 6.68 14.665 14.89 14.665s14.89-6.578 14.89-14.665zm-28.1-14.084a.956.956 0 0 1-.285.676.985.985 0 0 1-1.374 0 .954.954 0 0 1-.284-.676c0-.252.104-.5.284-.677a.986.986 0 0 1 .687-.28c.256 0 .506.102.687.28.181.178.285.425.285.677z"/></defs><g><g opacity=".5" transform="translate(-525 -3966)"><use fill="#fdaa28" xlink:href="#ahvra"/></g><g transform="translate(-525 -3966)"><use fill="#fdaa28" xlink:href="#ahvrb"/></g><g transform="translate(-525 -3966)"><use fill="#4e488d" xlink:href="#ahvrc"/></g></g></svg>