<svg xmlns="http://www.w3.org/2000/svg" xmlns:xlink="http://www.w3.org/1999/xlink" width="91" height="84" viewBox="0 0 91 84"><defs><path id="2yzka" d="M1372.957 3969.166c22.092 0 40 11.91 40 34 0 22.092-17.908 46-40 46-22.091 0-42-24.908-42-47 0-22.09 19.909-33 42-33z"/><path id="2yzkb" d="M1380.866 3973.858c19.132 11.046 28.687 30.314 17.64 49.446-11.045 19.131-38.508 30.882-57.64 19.836-19.132-11.045-23.919-42.57-12.873-61.703 11.046-19.131 33.741-18.625 52.873-7.579z"/><path id="2yzkc" d="M1378.907 4012.444v8.676c-.004 2.698-2.23 4.883-4.98 4.887h-27.941c-2.749-.004-4.976-2.19-4.98-4.887v-25.465c.004-2.697 2.231-4.883 4.98-4.886h8.841c.55 0 .996.438.996.977 0 .54-.446.977-.996.977h-8.841c-1.65.003-2.986 1.314-2.988 2.932v25.465c.002 1.619 1.338 2.93 2.988 2.932h27.941c1.65-.001 2.986-1.313 2.988-2.932v-8.676c0-.54.446-.978.996-.978s.996.438.996.978zm.774-23.043a4.344 4.344 0 0 1 0 6.22l-17.766 17.434a.999.999 0 0 1-.439.25l-8.434 2.293a1.01 1.01 0 0 1-.97-.25.965.965 0 0 1-.255-.953l2.336-8.276a.972.972 0 0 1 .255-.43l17.767-17.434a4.542 4.542 0 0 1 6.337 0zm-18.414 21.525l14.54-14.269-4.688-4.602-14.54 14.269zm-7.061 2.328l5.182-1.409-3.746-3.677zm24.067-22.471l-1.17-1.146a2.523 2.523 0 0 0-3.52 0l-1.056 1.036 4.69 4.602 1.056-1.036c.97-.955.97-2.5 0-3.456z"/></defs><g><g opacity=".5" transform="translate(-1322 -3966)"><use fill="#fdaa28" xlink:href="#2yzka"/></g><g transform="translate(-1322 -3966)"><use fill="#fdaa28" xlink:href="#2yzkb"/></g><g transform="translate(-1322 -3966)"><use fill="#404095" xlink:href="#2yzkc"/></g></g></svg>