<?xml version="1.0" encoding="utf-8"?>
<!-- Generator: Adobe Illustrator 16.0.0, SVG Export Plug-In . SVG Version: 6.00 Build 0)  -->
<!DOCTYPE svg PUBLIC "-//W3C//DTD SVG 1.1//EN" "http://www.w3.org/Graphics/SVG/1.1/DTD/svg11.dtd">
<svg version="1.1" id="Layer_1" xmlns="http://www.w3.org/2000/svg" xmlns:xlink="http://www.w3.org/1999/xlink" x="0px" y="0px"
	 width="1927.287px" height="914px" viewBox="13.713 0 1927.287 914" enable-background="new 13.713 0 1927.287 914"
	 xml:space="preserve">
<g>
	<g transform="translate(9 -4403)">
		<g>
			
				<linearGradient id="r1dsa_1_" gradientUnits="userSpaceOnUse" x1="966.1592" y1="301.499" x2="967.1592" y2="1229.499" gradientTransform="matrix(1 0 0 -1 9 5629)">
				<stop  offset="0" style="stop-color:#4D5FE0"/>
				<stop  offset="1" style="stop-color:#2ED3EB"/>
			</linearGradient>
			<path id="r1dsa" fill="url(#r1dsa_1_)" d="M4.713,4497.918c0,0,88.41,143.582,228.787,143.582c104.15,0,255.51-35.797,414-29
				c158.49,6.796,204.226,58.265,408,56c203.773-2.266,191.737-54,312-54c139.115,0,211.004,22.691,260.604,22.691
				c270.646,0,319.396-237.691,319.396-237.691l-4,922l-1939,6L4.713,4497.918z"/>
		</g>
	</g>
	<g transform="translate(9 -4403)" opacity="0.5">
		<g>
			<path id="r1dsc" fill="#32C5EA" d="M1879.513,5199.254c75.674,0,137.24,61.573,137.24,137.256
				c0,75.684-61.566,137.257-137.24,137.257s-137.239-61.574-137.239-137.257S1803.839,5199.254,1879.513,5199.254z
				 M1591.533,5336.51c0,159.066,128.933,288.016,287.979,288.016s287.98-128.951,287.98-288.016
				c0-159.066-128.934-288.016-287.98-288.016S1591.533,5177.443,1591.533,5336.51z"/>
		</g>
	</g>
	<g transform="translate(9 -4403)">
		<g>
			<path id="r1dsd" fill="#4289E4" d="M192.837,4996.786c-1.873,0-3.716,0.03-5.558,0.12c0,0-30.207,5.412-30.207,34.495
				c0,33.558,30.207,38.123,30.207,38.123c1.849-0.157,3.703-0.237,5.558-0.241c36.4,0,66.002,29.604,66.002,66.002
				c0,36.37-29.603,66.003-66.002,66.003c-36.4,0-66.003-29.633-66.003-66.003c0,0-2.705-30.207-34.596-30.207
				c-35.634,0-37.9,30.207-37.9,30.207c0,76.484,61.984,138.5,138.499,138.5c76.484,0,138.5-62.016,138.5-138.5
				C331.337,5058.771,269.321,4996.785,192.837,4996.786L192.837,4996.786z"/>
		</g>
	</g>
</g>
</svg>
