<svg xmlns="http://www.w3.org/2000/svg" xmlns:xlink="http://www.w3.org/1999/xlink" width="134" height="44" viewBox="0 0 134 44"><defs><path id="6a6ga" d="M432.343 875.153c0 6.33-4.964 10.994-11.057 10.994s-11.057-4.665-11.057-10.994c0-6.375 4.964-10.995 11.057-10.995s11.057 4.62 11.057 10.995zm-4.84 0c0-3.956-2.877-6.663-6.217-6.663s-6.217 2.707-6.217 6.663c0 3.915 2.878 6.662 6.217 6.662 3.34 0 6.217-2.752 6.217-6.662zm28.694 0c0 6.33-4.964 10.994-11.057 10.994s-11.057-4.665-11.057-10.994c0-6.37 4.964-10.995 11.057-10.995s11.057 4.62 11.057 10.995zm-4.84 0c0-3.956-2.878-6.663-6.217-6.663-3.34 0-6.217 2.707-6.217 6.663 0 3.915 2.877 6.662 6.217 6.662s6.217-2.752 6.217-6.662zm27.7 9.408c0 8.119-4.8 11.435-10.476 11.435-5.342 0-8.557-3.564-9.77-6.479l4.214-1.75c.75 1.79 2.59 3.902 5.551 3.902 3.633 0 5.884-2.236 5.884-6.444v-1.581h-.169c-1.083 1.333-3.17 2.498-5.804 2.498-5.511 0-10.56-4.789-10.56-10.95 0-6.206 5.049-11.034 10.56-11.034 2.629 0 4.716 1.165 5.804 2.459h.17v-1.79h4.596zm-4.254-9.369c0-3.871-2.59-6.702-5.884-6.702-3.34 0-6.137 2.83-6.137 6.702 0 3.832 2.798 6.623 6.137 6.623 3.295 0 5.884-2.791 5.884-6.623zm11.833-21.939v32.22h-4.722v-32.22zm22.154 28.016c-1.213 1.79-4.135 4.873-9.184 4.873-6.262 0-10.938-4.828-10.938-10.995 0-6.538 4.716-10.994 10.396-10.994 5.72 0 8.518 4.54 9.433 6.994l.501 1.25-14.734 6.086c1.128 2.206 2.882 3.332 5.342 3.332 2.465 0 4.174-1.21 5.427-3.044zm-15.321-6.454l9.85-4.08c-.542-1.372-2.172-2.329-4.09-2.329-2.46 0-5.885 2.166-5.76 6.41zm-101.11-2.523v-4.664h15.758c.154.813.233 1.774.233 2.815 0 3.5-.959 7.827-4.05 10.91-3.006 3.124-6.848 4.789-11.937 4.789-9.432 0-17.363-7.664-17.363-17.072S382.93 852 392.363 852c5.218 0 8.936 2.042 11.728 4.704l-3.3 3.291c-2.002-1.873-4.715-3.33-8.433-3.33-6.887 0-12.274 5.536-12.274 12.406 0 6.87 5.387 12.408 12.274 12.408 4.468 0 7.012-1.79 8.642-3.416 1.322-1.318 2.192-3.202 2.535-5.775z"/></defs><g><g transform="translate(-375 -852)"><use fill="#abcdff" xlink:href="#6a6ga"/></g></g></svg>