<svg xmlns="http://www.w3.org/2000/svg" xmlns:xlink="http://www.w3.org/1999/xlink" width="105" height="98" viewBox="0 0 105 98"><defs><path id="6887a" d="M1750.219 2581.033h6.562v3.267h-6.562zm-36.094-40.833v40.833h32.812v3.267h-34.453c-.905 0-1.64-.732-1.64-1.634v-44.1c0-.9.735-1.633 1.64-1.633h8.203v3.267zm45.937 40.833h32.813V2540.2h-19.688v-3.267h21.329c.907 0 1.64.732 1.64 1.633v44.1c0 .902-.733 1.634-1.64 1.634h-34.454zM1806 2589.2v6.125c0 .454-.19.887-.522 1.197l-2.211 2.041a1.65 1.65 0 0 1-1.118.437h-97.297c-.5 0-.971-.226-1.281-.614l-2.211-2.756a1.623 1.623 0 0 1-.36-1.019v-5.411c0-.902.735-1.634 1.64-1.634h1.641v-55.533c0-.901.736-1.633 1.64-1.633h27.891v3.266h-26.25v53.9h29.114c.188 0 .377.033.554.097l4.294 1.537h23.8l4.001-1.526c.187-.072.386-.108.586-.108h29.526v-53.9h-9.843v-3.266h11.484c.908 0 1.64.732 1.64 1.633v55.533h1.641c.908 0 1.64.732 1.64 1.634zm-3.281 1.633h-6.563v1.633h-3.281v-1.633h-3.281v1.633h-3.282v-1.633h-16.097l-4.003 1.526a1.644 1.644 0 0 1-.586.107h-24.39c-.188 0-.377-.032-.554-.096l-4.294-1.537h-22.263v1.633h-3.281v-1.633h-6.563v3.206l1.36 1.694h95.863l1.215-1.122zm-57.422-42.467h3.281v11.434h-3.281zm-9.844-24.5v-14.7c0-4.502 3.68-8.166 8.203-8.166h6.563c4.523 0 8.203 3.664 8.203 8.166v14.7c0 3.019-1.674 5.633-4.128 7.045l3.646 4.838 10.335 4.508a8.166 8.166 0 0 1 4.912 7.481v28.49a1.64 1.64 0 0 1-1.64 1.633h-.003l-49.22-.095a1.637 1.637 0 0 1-1.637-1.633v-28.794a8.126 8.126 0 0 1 5.152-7.58l10.118-4.038 3.624-4.81c-2.454-1.412-4.128-4.026-4.128-7.045zm20.142 15.912l-4.695 3.117 5.477 1.558zm-18.098 4.675l5.478-1.558-4.695-3.117zm29.461-1.204l-8.044-3.508 1.125 6.722a1.627 1.627 0 0 1-.525 1.488 1.644 1.644 0 0 1-1.542.352l-10.967-3.12a1.866 1.866 0 0 1-.133 0l-10.968 3.12a1.64 1.64 0 0 1-1.544-.351 1.628 1.628 0 0 1-.524-1.489l1.143-6.834-7.92 3.161a4.877 4.877 0 0 0-3.09 4.549v27.164l6.562.013v-17.983h3.281v17.988l26.25.05v-18.038h3.282v18.045l6.562.013v-26.853a4.9 4.9 0 0 0-2.948-4.489zm-15.977-11.293c-.255.024-.501.077-.762.077h-6.563c-.261 0-.507-.053-.762-.077l-3.448 4.575 7.491 4.972 7.491-4.972zm-12.247-8.09c0 2.701 2.209 4.9 4.922 4.9h6.563c2.713 0 4.922-2.199 4.922-4.9v-6.533h-4.922c-4.523 0-8.203-3.664-8.203-8.167v-1.633h3.28v1.633c0 2.702 2.21 4.9 4.923 4.9h4.922v-4.9c0-2.701-2.209-4.9-4.922-4.9h-6.563c-2.713 0-4.922 2.199-4.922 4.9zm22.969-4.9c0-8.104 6.623-14.7 14.766-14.7 8.142 0 14.765 6.596 14.765 14.7 0 8.105-6.623 14.7-14.765 14.7-8.143 0-14.766-6.595-14.766-14.7zm3.281 0c0 6.305 5.154 11.434 11.485 11.434 6.33 0 11.484-5.129 11.484-11.434 0-6.304-5.153-11.433-11.484-11.433s-11.485 5.129-11.485 11.433zm9.844-1.633h3.281v8.167h-3.281zm0-6.534h3.281v3.267h-3.281zm8.203 35.934h6.563V2550h-6.563zm-6.562 0h3.28V2550h-3.28zm6.562 6.533h6.563v3.267h-6.563zm-6.562 0h3.28v3.267h-3.28z"/></defs><g><g transform="translate(-1701 -2501)"><use fill="#e6e6ff" xlink:href="#6887a"/></g></g></svg>