<svg xmlns="http://www.w3.org/2000/svg" xmlns:xlink="http://www.w3.org/1999/xlink" width="98" height="98" viewBox="0 0 98 98"><defs><path id="1zpua" d="M1151.308 2209.433c0 .504-.205.998-.561 1.353-.356.356-.85.561-1.354.561-.503 0-.997-.205-1.353-.56a1.927 1.927 0 0 1-.56-1.354c0-.504.204-.997.56-1.353.356-.357.85-.561 1.353-.561.504 0 .998.205 1.354.56.356.357.56.848.56 1.354zm33.692-33.69v29.861a5.75 5.75 0 0 1-5.743 5.743h-21.44a1.914 1.914 0 1 1 0-3.828h19.562l-15.702-18.346-8.103 5.83a1.913 1.913 0 0 1-2.238-.002l-8.091-5.839-15.711 18.357h12.288a1.914 1.914 0 1 1 0 3.828h-14.166a5.75 5.75 0 0 1-5.743-5.743v-29.862c0-1.934.962-3.646 2.432-4.688a5.707 5.707 0 0 1 3.31-1.055h53.601a5.71 5.71 0 0 1 3.282 1.035c.022.016.045.03.066.047a5.74 5.74 0 0 1 2.396 4.661zm-44.87 11.172l-16.295-11.76c-.06.186-.093.383-.093.587v29.863c0 .139.016.274.044.405zm36.322-13.087h-47.914l23.92 17.262zm4.719 31.777v-29.863c0-.186-.028-.366-.078-.536l-16.297 11.724 16.33 19.08a1.91 1.91 0 0 0 .045-.405zm-6.509 49.976v.176a1.914 1.914 0 0 1-1.914 1.915h-1.738a1.914 1.914 0 0 1 0-3.829h.934a1.915 1.915 0 0 1 2.718 1.738zm0-9.571v1.914a1.914 1.914 0 0 1-3.829 0v-1.914a1.914 1.914 0 0 1 3.83 0zm-9.395 9.747a1.914 1.914 0 0 1-1.914 1.915h-1.915a1.914 1.914 0 0 1 0-3.829h1.915c1.057 0 1.914.857 1.914 1.914zm9.395-38.46v1.914a1.914 1.914 0 0 1-3.829 0v-1.915a1.914 1.914 0 0 1 3.83 0zm0 9.57v1.915a1.914 1.914 0 0 1-3.829 0v-1.915a1.914 1.914 0 0 1 3.83 0zm0 9.572v1.914a1.914 1.914 0 0 1-3.829 0v-1.914a1.914 1.914 0 0 1 3.83 0zm-71.594-54.188a1.914 1.914 0 0 1-1.915 1.914h-1.914a1.914 1.914 0 0 1 0-3.829h1.914c1.057 0 1.914.858 1.915 1.915zm9.57 0a1.914 1.914 0 0 1-1.913 1.914h-1.915a1.914 1.914 0 0 1 0-3.829h1.915c1.057 0 1.914.858 1.914 1.915zm-11.485 7.657v1.914a1.915 1.915 0 0 1-3.828 0v-1.914a1.914 1.914 0 1 1 3.828 0zm0 9.571v1.914a1.914 1.914 0 0 1-3.828 0v-1.914a1.914 1.914 0 1 1 3.828 0zm7.575 49.462c0 .503-.205.997-.56 1.353-.359.356-.85.561-1.354.561-.504 0-.998-.205-1.356-.56a1.927 1.927 0 0 1-.559-1.354c0-.504.203-.998.56-1.354.357-.356.85-.56 1.355-.56.503 0 .997.204 1.353.56.356.357.561.85.561 1.354zm40.028 5.921a7.375 7.375 0 0 1-2.175 5.25l-2.413 2.413a18.665 18.665 0 0 1-13.239 5.475 18.664 18.664 0 0 1-13.239-5.475l-4.957-4.958a1.914 1.914 0 0 1 2.707-2.707l4.958 4.957c5.24 5.24 13.446 5.75 19.266 1.532l-9.048-9.048a1.915 1.915 0 0 1 2.707-2.707l9.18 9.18 1.371-1.37a3.572 3.572 0 0 0 1.053-2.543c0-.96-.374-1.863-1.053-2.542l-10.086-10.086a3.6 3.6 0 0 0-5.085 0l-.657.657a6.177 6.177 0 0 1-8.726 0l-7.214-7.214a6.122 6.122 0 0 1-1.765-3.65l-9.564-9.562a1.914 1.914 0 1 1 2.708-2.707l7.966 7.966c.196-.272.413-.53.655-.772l.657-.657a3.599 3.599 0 0 0 0-5.085l-10.087-10.086a3.599 3.599 0 0 0-5.084 0l-2.414 2.414c-5.807 5.806-5.807 15.255 0 21.062l6.58 6.58a1.914 1.914 0 0 1-2.707 2.706l-6.58-6.579c-7.3-7.3-7.3-19.177 0-26.476l2.413-2.414c2.895-2.894 7.605-2.894 10.5 0l10.086 10.086c2.895 2.895 2.895 7.605 0 10.5l-.657.657a2.326 2.326 0 0 0-.686 1.655c0 .625.244 1.213.686 1.655l7.215 7.215a2.344 2.344 0 0 0 3.31 0l.658-.657c2.895-2.895 7.605-2.895 10.5 0l10.086 10.085a7.376 7.376 0 0 1 2.174 5.25z"/></defs><g><g transform="translate(-1087 -2170)"><use fill="#e6e6ff" xlink:href="#1zpua"/></g></g></svg>