<svg xmlns="http://www.w3.org/2000/svg" xmlns:xlink="http://www.w3.org/1999/xlink" width="110" height="110" viewBox="0 0 110 110"><defs><path id="ihwea" d="M1577.718 2297.32a2.15 2.15 0 1 1 0-3.038 2.15 2.15 0 0 1 0 3.037zm27.345-15.192c-4.189 4.189-11.004 4.187-15.193 0-4.188-4.19-4.188-11.004 0-15.191a10.739 10.739 0 0 1 15.193 0 10.736 10.736 0 0 1 0 15.191zm-3.039-12.153a6.443 6.443 0 0 0-9.116 0c-2.512 2.512-2.512 6.601 0 9.115a6.455 6.455 0 0 0 9.116 0 6.442 6.442 0 0 0 0-9.115zm27.975-25.749c-.018.486-.483 12.052-5.343 25.8-3.89 11.017-9.46 20.2-16.554 27.294a81.849 81.849 0 0 1-5.026 4.616c4.129 7.014 2.834 12.635.932 16.188-4.378 8.181-16.268 13.245-24.772 13.245a2.148 2.148 0 0 1-1.519-3.667c4.315-4.314 4.045-9.636 3.817-11.375l-.753-.752c-3.524 1.48-7.027 2.673-10.433 3.547-1.17.3-2.47.239-3.735-.258-.953 2.068-2.353 4.064-4.09 5.8-5.53 5.53-19.01 6.654-19.58 6.699a2.15 2.15 0 0 1-2.31-2.31c.044-.572 1.167-14.05 6.697-19.58 1.738-1.738 3.734-3.138 5.803-4.09-.47-1.195-.576-2.5-.26-3.733.874-3.407 2.067-6.91 3.548-10.434l-.752-.752c-1.739-.229-7.061-.499-11.376 3.816a2.149 2.149 0 0 1-3.669-1.52c0-8.503 5.065-20.39 13.247-24.77 3.553-1.9 9.174-3.196 16.189.933a81.75 81.75 0 0 1 4.617-5.026c7.094-7.094 16.277-12.663 27.295-16.553 13.75-4.86 25.317-5.324 25.802-5.342a2.148 2.148 0 0 1 2.224 2.224zm-72.823 42.138c.719.162 1.105.648 1.137.668a86.852 86.852 0 0 1 9.028-14.713c-4.085-2.236-7.927-2.42-11.442-.54-5.26 2.814-9.136 9.902-10.47 16.36 5.767-3.064 11.452-1.842 11.747-1.775zm5.924 29.762l-7.23-7.23c-1.928.706-3.847 1.96-5.501 3.615-2.954 2.954-4.512 9.883-5.149 14.263 4.38-.636 11.31-2.194 14.265-5.148 1.654-1.654 2.909-3.572 3.615-5.5zm14.385-3.848l-17.767-17.766a69.765 69.765 0 0 0-2.683 8.206c-.159.62.075 1.34.61 1.877l5.55 5.549 4.208 4.207c.535.535 1.255.768 1.877.61a69.757 69.757 0 0 0 8.205-2.683zm22.196-7.622a86.902 86.902 0 0 1-14.715 9.026c.025.041.479.39.653 1.085.753 2.991.299 7.924-1.76 11.8 6.458-1.335 13.546-5.212 16.361-10.47 1.88-3.515 1.697-7.357-.54-11.441zm20.46-34.796l-18.002-18.001c-9.843 3.646-18.058 8.711-24.423 15.076a77.888 77.888 0 0 0-5.56 6.197 82.521 82.521 0 0 0-10.617 17.126l20.201 20.199a82.544 82.544 0 0 0 17.128-10.617 77.916 77.916 0 0 0 6.196-5.559c6.366-6.364 11.432-14.578 15.078-24.42zm5.382-23.382c-3.553.342-10.67 1.294-18.853 3.835l15.018 15.016c2.54-8.18 3.493-15.297 3.835-18.85zm-53.883 87.3l-6.076 6.077a2.149 2.149 0 0 1-3.04-3.038l6.077-6.077a2.149 2.149 0 0 1 3.039 3.038zm-30.385-30.382l-6.079 6.075a2.149 2.149 0 1 1-3.037-3.039l6.078-6.075a2.149 2.149 0 0 1 3.038 3.039zm15.192 33.422l-14.554 14.55a2.148 2.148 0 1 1-3.038-3.038l14.554-14.55a2.148 2.148 0 0 1 3.038 3.038zm-17.188 0l-14.554 14.55a2.148 2.148 0 0 1-3.039-3.038l14.555-14.55a2.149 2.149 0 0 1 3.038 3.038zm-1.044-18.232l-14.552 14.553a2.148 2.148 0 1 1-3.039-3.038l14.552-14.553a2.149 2.149 0 0 1 3.039 3.038zm48.617-30.382l-3.038 3.038a2.15 2.15 0 0 1-3.038-3.039l3.038-3.037a2.149 2.149 0 0 1 3.038 3.038z"/></defs><g><g transform="translate(-1520 -2242)"><use fill="#e6e6ff" xlink:href="#ihwea"/></g></g></svg>