<svg xmlns="http://www.w3.org/2000/svg" xmlns:xlink="http://www.w3.org/1999/xlink" width="66" height="124" viewBox="0 0 66 124"><defs><path id="1piqa" d="M512 2560.533V2463.4c0-5.374 5.556-11.574 12.963-12.326.49-.05.982-.074 1.475-.074h37.124c.493 0 .985.024 1.475.074 7.407.752 12.963 6.952 12.963 12.326v97.133a14.485 14.485 0 0 1-9.923 13.733l-.097.035c-.316.1-.62.176-.934.255-.177.045-.35.099-.532.138a26.6 26.6 0 0 1-1.456.227c-.497.053-.996.079-1.496.079h-37.124c-.5 0-1-.026-1.496-.079-.25-.02-1.219-.177-1.456-.227-.182-.04-.355-.093-.532-.138-.315-.079-.627-.156-.935-.255l-.096-.035a14.485 14.485 0 0 1-9.923-13.733zm4.125-14.467h57.75v-74.4h-57.75zm47.437 24.8c.67-.002 1.338-.07 1.994-.202l.116-.019a10.35 10.35 0 0 0 1.566-.487c4.036-1.63 6.637-5.981 6.637-11.692v-8.266h-57.75v8.266c0 5.71 2.601 10.061 6.637 11.687.508.205 1.032.367 1.566.488l.115.019c.656.134 1.325.203 1.994.206zm-37.125-115.733c-.691 0-1.38.07-2.058.209-.079.016-.148.05-.227.066a10.33 10.33 0 0 0-8.027 10.058v2.067h57.75v-2.067a10.33 10.33 0 0 0-8.023-10.06c-.079-.017-.148-.05-.227-.066a10.243 10.243 0 0 0-2.063-.207zm24.75 105.4c0 3.424-2.77 6.2-6.187 6.2-3.417 0-6.188-2.776-6.188-6.2 0-3.424 2.77-6.2 6.188-6.2 3.417 0 6.187 2.776 6.187 6.2zm-4.125 0a2.065 2.065 0 0 0-2.062-2.067 2.065 2.065 0 0 0-2.063 2.067c0 1.141.924 2.067 2.063 2.067a2.065 2.065 0 0 0 2.062-2.067zm-10.312-99.2c0-1.141.923-2.067 2.062-2.067h12.375c1.14 0 2.063.926 2.063 2.067a2.065 2.065 0 0 1-2.063 2.067h-12.375a2.065 2.065 0 0 1-2.062-2.067zm-7.652 1.467a2.042 2.042 0 0 1-.598-1.467 2.065 2.065 0 0 1 1.272-1.92 2.058 2.058 0 0 1 2.255.453 2.07 2.07 0 0 1 .452 2.26 2.061 2.061 0 0 1-1.917 1.274 2.033 2.033 0 0 1-1.464-.6zm-3.265 39.26a2.059 2.059 0 0 1-3.478-.911 2.07 2.07 0 0 1 .562-2.01l16.5-16.534a2.06 2.06 0 0 1 2.891.025 2.07 2.07 0 0 1 .025 2.897zm35.015-16.487l-33 31a2.06 2.06 0 0 1-3.463-1.016 2.07 2.07 0 0 1 .642-1.997l33-31a2.06 2.06 0 0 1 2.914.093 2.07 2.07 0 0 1-.093 2.92zm-4.077 22.688l-10.313 10.333a2.059 2.059 0 0 1-3.478-.912 2.069 2.069 0 0 1 .562-2.01l10.312-10.333a2.06 2.06 0 0 1 2.917 0 2.07 2.07 0 0 1 0 2.922zm12.375 6.2l-18.563 18.6a2.06 2.06 0 0 1-3.478-.912 2.07 2.07 0 0 1 .562-2.01l18.562-18.6a2.06 2.06 0 0 1 2.917 0 2.07 2.07 0 0 1 0 2.922z"/></defs><g><g transform="translate(-512 -2451)"><use fill="#e6e6ff" xlink:href="#1piqa"/></g></g></svg>