<svg xmlns="http://www.w3.org/2000/svg" xmlns:xlink="http://www.w3.org/1999/xlink" width="122" height="122" viewBox="0 0 122 122"><defs><path id="72paa" d="M1317.774 2641.258l2.996 2.983-9.607 8.782c-2.546 2.542-6.011 3.977-9.7 3.977a13.734 13.734 0 0 1-9.762-4.036l-26.656-26.594a13.664 13.664 0 0 1-4.043-9.738c0-3.68 1.436-7.14 4.043-9.74l8.805-8.785 14.622 14.589-7.79 7.77a1.968 1.968 0 0 0 0 2.785l6.717 6.702.79-2.363a13.794 13.794 0 0 1 10.626-9.195l13.182-2.393v-1.02c-4.84-2.801-8.382-7.587-9.488-13.243-3.586-.74-6.29-3.913-6.29-7.707v-13.774c0-14.105 11.503-25.58 25.64-25.58s25.64 11.475 25.64 25.58v23.613c0 3.254-2.655 5.903-5.917 5.903h-3.982a19.842 19.842 0 0 1-5.88 5.209v1.019l13.181 2.393a13.797 13.797 0 0 1 10.629 9.195l4.566 13.668zm25.78-40.45c-.724.422-1.5.756-2.345.931a19.51 19.51 0 0 1-1.286 4.1h1.659a1.972 1.972 0 0 0 1.972-1.968zm0-6.776c0-1.45-.799-2.706-1.972-3.389v6.777c1.173-.683 1.972-1.938 1.972-3.388zm-41.418-3.389c-1.173.683-1.972 1.938-1.972 3.389 0 1.45.799 2.705 1.972 3.388zm1.972-6.45a21.724 21.724 0 0 0 15.441-6.381l2.31-2.304 2.31 2.304a21.725 21.725 0 0 0 15.44 6.381h1.973v2.247c.702.181 1.36.459 1.972.815v-6.997c0-11.935-9.733-21.645-21.695-21.645s-21.695 9.71-21.695 21.645v6.997a7.837 7.837 0 0 1 1.972-.815v-2.247zm17.751 29.516c3.986 0 7.62-1.493 10.402-3.935h-10.402v-3.936h13.644a15.596 15.596 0 0 0 2.134-7.87v-9.914a25.588 25.588 0 0 1-15.778-6.993 25.599 25.599 0 0 1-15.778 6.993v9.913c0 8.68 7.078 15.742 15.778 15.742zm0 3.936c-2.061 0-4.047-.32-5.917-.907v.092l5.917 5.903 5.917-5.903v-.092c-1.87.586-3.856.907-5.917.907zm-31.344 15.42l4.308 4.297c.745.745 2.045.745 2.789 0l8.536-7.704 7.682 7.664h40.795l-2.839-8.487a9.854 9.854 0 0 0-7.59-6.57l-13.785-2.499-8.552 8.532-8.554-8.534-13.786 2.499a9.858 9.858 0 0 0-7.591 6.57zm-18.81-27.256l9.046 9.024 2.141-2.137-9.045-9.024zm37.859 43.342l-9.087-9.066-.148.132c-1.045 1.047-2.53 1.66-4.112 1.66a5.894 5.894 0 0 1-4.185-1.729l-14.143-14.11a5.903 5.903 0 0 1 0-8.35l.07-.07-9.044-9.025-1.085 1.083a9.764 9.764 0 0 0-2.887 6.957 9.763 9.763 0 0 0 2.887 6.956l26.655 26.592a9.82 9.82 0 0 0 6.975 2.883 9.824 9.824 0 0 0 6.972-2.879zm5.5-5.03l-9.05-9.03-2.606 2.35 9.067 9.045zM1383 2540.903v15.742c0 3.255-2.655 5.903-5.917 5.903h-5.35l-19.033 11.868 2.039-11.868h-5.268c-3.262 0-5.917-2.648-5.917-5.903v-15.742c0-3.255 2.655-5.903 5.917-5.903h27.612c3.262 0 5.917 2.648 5.917 5.903zm-3.945 0a1.973 1.973 0 0 0-1.972-1.968h-27.612a1.973 1.973 0 0 0-1.972 1.968v15.742c0 1.084.885 1.968 1.972 1.968h9.946l-1.343 7.81 12.526-7.81h6.483a1.973 1.973 0 0 0 1.972-1.968zm-27.612 1.968h23.668v3.935h-23.668zm0 7.87h15.779v3.936h-15.779zm19.723 0h3.945v3.936h-3.945zm-32.945-7.378l-1.168 3.758a51.38 51.38 0 0 0-15.194-2.283c-23.705 0-44.16 16.205-49.75 38.899l5.346-3.2 2.03 3.375-11.552 6.917-6.933-11.526 3.383-2.024 3.737 6.216c5.771-24.808 27.97-42.592 53.739-42.592a55.29 55.29 0 0 1 16.362 2.46zm41.79 38.581l-5.796-3.469a54.719 54.719 0 0 1 2.868 17.525c0 12.601-4.374 24.923-12.319 34.691l-3.063-2.48a51.208 51.208 0 0 0 11.437-32.211c0-5.685-.928-11.232-2.745-16.535l-3.452 5.74-3.382-2.025 6.93-11.527 11.552 6.916z"/></defs><g><g transform="translate(-1261 -2535)"><use fill="#e6e6ff" xlink:href="#72paa"/></g></g></svg>