<svg xmlns="http://www.w3.org/2000/svg" xmlns:xlink="http://www.w3.org/1999/xlink" width="24" height="24" viewBox="0 0 24 24"><defs><path id="m8n4a" d="M1331 5064v14c0 2.757-2.243 5-5 5h-14c-2.757 0-5-2.243-5-5v-14c0-2.758 2.243-5 5-5h14c2.757 0 5 2.242 5 5zm-2 0c0-1.655-1.346-3-3-3h-14c-1.655 0-3 1.345-3 3v14c0 1.654 1.345 3 3 3h14c1.654 0 3-1.346 3-3zm-3.5 7c0 3.583-2.916 6.5-6.5 6.5a6.508 6.508 0 0 1-6.5-6.5c0-3.585 2.916-6.5 6.5-6.5s6.5 2.915 6.5 6.5zm-2 0c0-2.482-2.02-4.501-4.5-4.501-2.481 0-4.5 2.02-4.5 4.5 0 2.481 2.019 4.5 4.5 4.5 2.48 0 4.5-2.019 4.5-4.5zm4-7c0 .826-.673 1.5-1.5 1.5s-1.5-.674-1.5-1.5c0-.828.673-1.5 1.5-1.5s1.5.672 1.5 1.5z"/></defs><g><g transform="translate(-1307 -5059)"><use fill="#fe971d" xlink:href="#m8n4a"/></g></g></svg>