<svg xmlns="http://www.w3.org/2000/svg" xmlns:xlink="http://www.w3.org/1999/xlink" width="132" height="132" viewBox="0 0 132 132"><defs><path id="my9da" d="M192 2524v24.2c-.01 8.5-6.899 15.39-15.4 15.4h-2.2v-4.4h2.2c6.072-.008 10.993-4.928 11-11V2524c0-15.796-12.805-28.6-28.6-28.6-15.795 0-28.6 12.804-28.6 28.6v24.2c.007 6.072 4.928 10.992 11 11h2.2v4.4h-2.2c-8.501-.01-15.39-6.9-15.4-15.4V2524c0-18.226 14.775-33 33-33s33 14.774 33 33zm-57.759 91.025a2.2 2.2 0 0 1 .482 1.375v6.6h-4.4v-5.85a21.93 21.93 0 0 1-.909-24.823l1.608-2.534 3.716 2.358-1.608 2.533a17.527 17.527 0 0 0 1.111 20.34zM247 2502v22c-.007 6.072-4.928 10.993-11 11h-10.09l-10.355 10.355a2.2 2.2 0 0 1-3.755-1.555v-8.8h-4.4c-6.072-.007-10.993-4.928-11-11v-22c.007-6.072 4.928-10.993 11-11H236c6.072.007 10.993 4.928 11 11zm-4.4 0a6.6 6.6 0 0 0-6.6-6.6h-28.6a6.6 6.6 0 0 0-6.6 6.6v22a6.6 6.6 0 0 0 6.6 6.6h6.6a2.2 2.2 0 0 1 2.2 2.2v5.689l7.245-7.245a2.2 2.2 0 0 1 1.555-.644h11a6.6 6.6 0 0 0 6.6-6.6zm-35.2 0h15.4v4.4h-15.4zm19.8 0h8.8v4.4h-8.8zm-19.8 8.8H236v4.4h-28.6zm0 8.8h15.4v4.4h-15.4zm-19.723 97.55v5.85h-4.4v-6.6c0-.5.17-.985.482-1.375a17.522 17.522 0 0 0 1.11-20.34l-1.607-2.534 3.715-2.358 1.609 2.534a21.93 21.93 0 0 1-.91 24.823zM247 2568c-.01 8.5-6.899 15.39-15.4 15.4h-.88l-21.459 39.6h-5.005l21.45-39.6h-12.612l-10.371 18.667A2.2 2.2 0 0 1 198.6 2601v-17.6c-.007-6.072-4.928-10.993-11-11h-5.94l-20.9 27.72a2.2 2.2 0 0 1-1.76.88h-.029c-.7-.01-1.353-.351-1.76-.92l-19.81-27.68H130.4c-6.072.007-10.993 4.928-11 11v39.6H115v-39.6c.01-8.501 6.899-15.39 15.4-15.4h13.2a4.4 4.4 0 0 0 4.4-4.4v-5.177a22 22 0 0 1-11-19.023v-9.476a2.2 2.2 0 0 1 1.263-1.99l37.237-17.522a2.2 2.2 0 0 1 2.86.947 22.044 22.044 0 0 1 2.64 10.44v17.6a22 22 0 0 1-11 19.024v5.177a4.4 4.4 0 0 0 4.4 4.4h5.06l.04-.047.059.047h8.04c8.502.01 15.391 6.899 15.401 15.4v9.11l6.63-11.938c.337-8.247 7.115-14.763 15.37-14.773h19.8a2.2 2.2 0 0 1 2.2 2.2zm-88-11c9.72 0 17.6-7.88 17.6-17.6v-17.6a17.6 17.6 0 0 0-1.23-6.464l-33.97 15.985v8.079c0 9.72 7.88 17.6 17.6 17.6zm7.196 28.6h-13.94l6.79 9.486zm9.964-13.2h-1.76a8.8 8.8 0 0 1-8.8-8.8v-3.215a21.983 21.983 0 0 1-13.2 0v3.215a8.8 8.8 0 0 1-8.8 8.8h-.799l6.299 8.8h20.425zm66.22-2.2H225a11.018 11.018 0 0 0-10.78 8.8h17.38a11.018 11.018 0 0 0 10.78-8.8z"/></defs><g><g transform="translate(-115 -2491)"><use fill="#e6e6ff" xlink:href="#my9da"/></g></g></svg>