<svg xmlns="http://www.w3.org/2000/svg" xmlns:xlink="http://www.w3.org/1999/xlink" width="86" height="93" viewBox="0 0 86 93"><defs><path id="2fn5a" d="M684.053 2221.595c.2.745-.244 1.508-.989 1.708l-9.638 2.582c.017 2.477-1.617 4.761-4.124 5.433-2.977.798-6.045-.968-6.84-3.937-.671-2.502.496-5.054 2.656-6.277l-3.657-13.65c-.2-.744.244-1.508.989-1.707.745-.2 1.51.24 1.71.984l3.657 13.65a5.574 5.574 0 0 1 4.888 2.813l9.638-2.583c.746-.2 1.51.24 1.71.984zm-13.495 3.617a2.793 2.793 0 0 0-3.42-1.97 2.793 2.793 0 0 0-1.978 3.416 2.793 2.793 0 0 0 3.42 1.968 2.793 2.793 0 0 0 1.978-3.414zm16.78-31.49c8.066 4.845 14.34 12.679 16.958 22.45 3.57 13.32-.535 26.92-9.587 36.128l5.178 2.98a1.39 1.39 0 0 1 .51 1.903 1.396 1.396 0 0 1-1.908.511l-5.9-3.395a37.574 37.574 0 0 1-14.993 7.974 37.57 37.57 0 0 1-16.971.59l-3.412 5.891a1.395 1.395 0 0 1-1.908.511 1.39 1.39 0 0 1-.51-1.903l2.994-5.17c-12.443-3.447-22.797-13.173-26.366-26.494-2.619-9.771-1.103-19.692 3.46-27.92l-2.866-1.65-4.05 6.993a1.395 1.395 0 0 1-1.909.512c-5.415-3.116-7.274-10.051-4.141-15.457 3.13-5.406 10.084-7.27 15.499-4.153a1.386 1.386 0 0 1 .51 1.903l-4.51 7.787 2.906 1.672c4.906-7.494 12.478-13.29 21.802-15.789 9.324-2.498 18.78-1.264 26.775 2.773l1.68-2.9-7.8-4.49a1.386 1.386 0 0 1-.51-1.903c3.131-5.406 10.085-7.27 15.5-4.153 5.415 3.116 7.273 10.051 4.141 15.457a1.396 1.396 0 0 1-1.908.512l-7.005-4.032zm-5.854-10.404l14.607 8.408c1.45-3.837-.052-8.276-3.722-10.388-3.67-2.114-8.278-1.19-10.885 1.98zm-46.733 12.522c-3.841-1.44-8.294.063-10.416 3.727-2.122 3.665-1.204 8.26 1.97 10.856zm66.846 21.055c-4.971-18.553-24.15-29.591-42.753-24.607-18.603 4.985-29.694 24.134-24.722 42.687 4.97 18.552 24.15 29.59 42.753 24.606 18.604-4.985 29.693-24.134 24.722-42.686zm-11.003-13.64c.02.02.026.046.044.067a31.772 31.772 0 0 1 8.261 14.295 31.777 31.777 0 0 1-.006 16.511c-.004.028.003.054-.004.08-.01.04-.032.071-.045.108a32.326 32.326 0 0 1-8.237 14.201c-.019.021-.025.047-.044.067-.03.03-.065.048-.096.073a31.989 31.989 0 0 1-14.312 8.232 31.99 31.99 0 0 1-16.51.027c-.04-.006-.08-.004-.12-.015-.027-.008-.047-.027-.072-.036a32.336 32.336 0 0 1-14.234-8.18c-.03-.026-.064-.042-.092-.07-.02-.021-.026-.047-.044-.068a31.772 31.772 0 0 1-8.261-14.296 31.775 31.775 0 0 1 .006-16.51c.004-.028-.003-.055.005-.081.007-.027.027-.045.035-.072a32.31 32.31 0 0 1 8.246-14.237c.019-.02.025-.047.044-.066.019-.021.046-.027.067-.046a31.97 31.97 0 0 1 14.34-8.26 31.99 31.99 0 0 1 16.55-.017c.028.006.054-.001.082.006.026.007.046.026.071.036a32.317 32.317 0 0 1 14.26 8.206c.019.018.045.026.066.044zm5.166 31.563l-1.287-.343a1.391 1.391 0 0 1-.987-1.706c.2-.742.964-1.188 1.712-.987l1.291.345c.88-3.989.915-8.208-.001-12.422l-1.281.343c-.745.2-1.51-.24-1.71-.984-.2-.744.244-1.508.989-1.708l1.28-.343a28.984 28.984 0 0 0-6.21-10.759l-.945.944a1.4 1.4 0 0 1-1.975.002 1.392 1.392 0 0 1 0-1.97l.943-.941a29.476 29.476 0 0 0-10.779-6.204l-.345 1.284a1.4 1.4 0 0 1-1.712.987 1.392 1.392 0 0 1-.986-1.707l.347-1.288a29.152 29.152 0 0 0-12.451.018l.342 1.277c.2.745-.244 1.508-.989 1.708-.745.2-1.51-.24-1.71-.985l-.342-1.277a29.174 29.174 0 0 0-10.793 6.21l.946.942a1.392 1.392 0 0 1-.627 2.332 1.4 1.4 0 0 1-1.35-.36l-.942-.939a29.496 29.496 0 0 0-6.233 10.763l1.288.346a1.392 1.392 0 0 1-.003 2.692 1.393 1.393 0 0 1-.722 0l-1.292-.345a28.969 28.969 0 0 0 .002 12.422l1.284-.344a1.395 1.395 0 0 1 .721 2.692l-1.281.343a28.983 28.983 0 0 0 6.21 10.76l.946-.945a1.395 1.395 0 1 1 1.974 1.97l-.943.94a29.477 29.477 0 0 0 10.779 6.204l.346-1.285a1.4 1.4 0 0 1 1.711-.986c.745.198 1.186.961.987 1.706l-.348 1.289c3.999.872 8.226.903 12.452-.019l-.343-1.277c-.199-.744.244-1.508.99-1.708.744-.199 1.51.24 1.71.985l.342 1.277a29.175 29.175 0 0 0 10.792-6.21l-.945-.942a1.392 1.392 0 0 1 .001-1.97 1.399 1.399 0 0 1 1.976-.002l.941.939a29.426 29.426 0 0 0 6.23-10.764z"/></defs><g><g transform="translate(-620 -2177)"><use fill="#e6e6ff" xlink:href="#2fn5a"/></g></g></svg>