<svg xmlns="http://www.w3.org/2000/svg" xmlns:xlink="http://www.w3.org/1999/xlink" width="98" height="91" viewBox="0 0 98 91"><defs><path id="yq7ga" d="M1002.017 2626.698a26.445 26.445 0 0 1 3.984 14.154c0 14.974-12.15 27.147-27.083 27.147-9.034 0-17.047-4.521-21.97-11.312h-41.09c-4.333 0-7.858-3.638-7.858-8.152v-63.293c0-4.515 3.525-8.243 7.858-8.243h78.3c4.334 0 7.859 3.728 7.859 8.243v41.456zm-90.83-41.456v11.33h87.643v-11.33c0-2.752-2.096-5.047-4.672-5.047h-78.3c-2.576 0-4.671 2.295-4.671 5.047zm43.78 68.25a27.002 27.002 0 0 1-3.132-12.646c0-14.973 12.15-27.138 27.083-27.138a27.028 27.028 0 0 1 19.912 8.768v-22.708h-87.643v48.767c0 2.752 2.095 4.957 4.67 4.957zm47.847-12.63c0-13.233-10.699-23.96-23.896-23.96-13.198 0-23.896 10.727-23.896 23.96 0 13.232 10.698 23.959 23.896 23.959 13.19-.015 23.88-10.733 23.896-23.96zm-76.022-52.325c0-3.304 2.589-5.991 5.77-5.991 3.181 0 5.77 2.687 5.77 5.99 0 3.304-2.589 5.99-5.77 5.99-3.181 0-5.77-2.686-5.77-5.99zm3.187 0c0 1.54 1.159 2.794 2.583 2.794 1.424 0 2.583-1.254 2.583-2.794 0-1.542-1.159-2.796-2.583-2.796-1.424 0-2.583 1.254-2.583 2.796zm10.385 0c0-3.304 2.589-5.991 5.77-5.991 3.182 0 5.77 2.687 5.77 5.99 0 3.304-2.588 5.99-5.77 5.99-3.181 0-5.77-2.686-5.77-5.99zm3.187 0c0 1.54 1.159 2.794 2.583 2.794 1.425 0 2.583-1.254 2.583-2.794 0-1.542-1.159-2.796-2.583-2.796-1.424 0-2.583 1.254-2.583 2.796zm-30.331 0c0-3.304 2.588-5.991 5.77-5.991 3.181 0 5.769 2.687 5.769 5.99 0 3.304-2.588 5.99-5.77 5.99-3.181 0-5.769-2.686-5.769-5.99zm3.187 0c0 1.54 1.159 2.794 2.582 2.794 1.424 0 2.583-1.254 2.583-2.794 0-1.542-1.159-2.796-2.583-2.796-1.423 0-2.582 1.254-2.582 2.796zm73.5 53.168l6.355 6.367a3.464 3.464 0 0 1 .027 4.852l-1.346 1.361a3.36 3.36 0 0 1-2.446 1.003h-.02a3.396 3.396 0 0 1-1.594-.354l-2.014 2.058a7.698 7.698 0 0 1-10.906 0l-15.14-15.182a7.745 7.745 0 0 1 0-10.934l2.016-2.02a3.458 3.458 0 0 1 .638-4.002l1.371-1.375a3.444 3.444 0 0 1 4.876 0l6.354 6.371a3.462 3.462 0 0 1 0 4.888l-1.371 1.375a3.437 3.437 0 0 1-3.366.882l-.91.912a.252.252 0 0 0-.02.323.448.448 0 0 1 .02.02l9.084 9.108a.237.237 0 0 0 .179.072.238.238 0 0 0 .174-.083l.929-.931a3.468 3.468 0 0 1 .862-3.298l1.346-1.38a3.417 3.417 0 0 1 2.445-1.04 3.425 3.425 0 0 1 2.458 1.007zm-22.176-14.222l6.354 6.37a.262.262 0 0 0 .368 0l1.371-1.374a.262.262 0 0 0 0-.369l-6.354-6.371a.26.26 0 0 0-.368 0l-1.371 1.374a.263.263 0 0 0 0 .37zm15.685 28.578a4.49 4.49 0 0 0 3.199-1.33l1.902-1.907-3.802-3.814-.605.607a3.42 3.42 0 0 1-4.839.013l-9.095-9.12a4.227 4.227 0 0 1-.155-.163 3.47 3.47 0 0 1 .167-4.71l.583-.586-3.803-3.812-1.892 1.897a4.544 4.544 0 0 0 0 6.415l15.14 15.18a4.488 4.488 0 0 0 3.2 1.33zm10.594-5.353a.258.258 0 0 0-.003-.364l-6.354-6.369a.249.249 0 0 0-.185-.07h-.001a.245.245 0 0 0-.184.072l-1.347 1.375a.263.263 0 0 0 .003.367l6.353 6.37a.24.24 0 0 0 .186.077c.07 0 .137-.028.185-.078l1.346-1.38z"/></defs><g><g transform="translate(-908 -2577)"><use fill="#e6e6ff" xlink:href="#yq7ga"/></g></g></svg>