<svg xmlns="http://www.w3.org/2000/svg" xmlns:xlink="http://www.w3.org/1999/xlink" width="24" height="24" viewBox="0 0 24 24"><defs><path id="30aba" d="M1280.16 5059.003h15.652a4.174 4.174 0 0 1 4.174 4.174v15.652a4.174 4.174 0 0 1-4.174 4.174h-15.652a4.174 4.174 0 0 1-4.174-4.174v-15.652a4.174 4.174 0 0 1 4.174-4.174z"/><path id="30abb" d="M1285.19 5070.857h1.302v4.966c0 .098.086.178.191.178h2.206c.106 0 .192-.08.192-.178v-4.942h1.495c.098 0 .18-.068.19-.158l.228-1.828a.17.17 0 0 0-.048-.138.197.197 0 0 0-.142-.06h-1.723v-1.146c0-.346.2-.52.596-.52h1.127c.105 0 .191-.08.191-.178v-1.678c0-.098-.086-.178-.191-.178h-1.553l-.071-.001c-.27 0-1.205.05-1.945.68-.82.699-.706 1.536-.678 1.681v1.34h-1.366c-.106 0-.192.08-.192.178v1.805c0 .098.086.177.192.177z"/><clipPath id="30abc"><use fill="#fff" xlink:href="#30aba"/></clipPath></defs><g><g transform="translate(-1276 -5059)"><use fill="#fe971d" xlink:href="#30abb"/></g><g transform="translate(-1276 -5059)"><use fill="#fff" fill-opacity="0" stroke="#fe971d" stroke-miterlimit="50" stroke-width="4" clip-path="url(&quot;#30abc&quot;)" xlink:href="#30aba"/></g></g></svg>