<svg xmlns="http://www.w3.org/2000/svg" xmlns:xlink="http://www.w3.org/1999/xlink" width="101" height="101" viewBox="0 0 101 101"><defs><path id="e3d3a" d="M269.817 2256.033h-3.367c0-.928-.754-1.683-1.683-1.683-.93 0-1.684.755-1.684 1.683h-3.366a5.056 5.056 0 0 1 5.05-5.05 5.056 5.056 0 0 1 5.05 5.05zm13.466 0h-3.366c0-.928-.755-1.683-1.684-1.683-.929 0-1.683.755-1.683 1.683h-3.367a5.056 5.056 0 0 1 5.05-5.05 5.056 5.056 0 0 1 5.05 5.05zm-5.05 47.133a6.74 6.74 0 0 1-6.733 6.734 6.74 6.74 0 0 1-6.733-6.734 6.74 6.74 0 0 1 6.733-6.733 6.74 6.74 0 0 1 6.733 6.733zm-3.366 0a3.37 3.37 0 0 0-3.367-3.366 3.37 3.37 0 0 0-3.367 3.366 3.37 3.37 0 0 0 3.367 3.367 3.37 3.37 0 0 0 3.367-3.367zM322 2316.633V2320H221v-3.367h10.1v-21.884c0-13.922 11.327-25.25 25.25-25.25h1.835a20.165 20.165 0 0 1-6.58-11.783h-1.147c-4.176 0-7.575-3.398-7.575-7.574a7.568 7.568 0 0 1 3.387-6.305c.224-13.73 11.445-24.837 25.23-24.837s25.006 11.106 25.23 24.837a7.568 7.568 0 0 1 3.387 6.305 7.57 7.57 0 0 1-3.367 6.292v2.966c0 4.64-3.776 8.416-8.417 8.416h-1.82a20.236 20.236 0 0 1-1.696 1.684h1.833c13.923 0 25.25 11.327 25.25 25.25v21.883zm-28.617-59.003c-.28.032-.554.086-.841.086h-1.147a20.023 20.023 0 0 1-2.387 6.665c2.463-.334 4.375-2.428 4.375-4.981zm-.841-11.697h-.842v8.417h.842a4.213 4.213 0 0 0 4.208-4.208 4.213 4.213 0 0 0-4.208-4.209zm-41.242 0h-.842a4.213 4.213 0 0 0-4.208 4.208 4.213 4.213 0 0 0 4.208 4.209h.842zm.305-3.367c1.609-9.537 9.906-16.833 19.895-16.833 9.989 0 18.286 7.296 19.895 16.833h1.147c.26 0 .506.05.76.078-.828-11.317-10.278-20.278-21.802-20.278s-20.974 8.96-21.803 20.278c.255-.027.5-.078.761-.078zM271.5 2229.1c-8.676 0-15.839 6.6-16.736 15.044 5.653-.618 10.003-4.105 10.003-8.31a1.683 1.683 0 1 1 3.366 0c0 4.662 8.05 9.63 20.199 10.057-.024-9.262-7.565-16.791-16.832-16.791zm-6.94 40.568a16.747 16.747 0 0 0 16.996-1.852H271.5v-3.366h13.435c2.122-2.818 3.398-6.308 3.398-10.1v-5.084c-9.97-.335-18.2-3.62-21.721-8.285-2.228 3.55-6.688 6.085-11.945 6.541v6.828c0 6.807 4.068 12.668 9.893 15.318zm6.94 14.584l5.203-10.406a20.095 20.095 0 0 1-5.203.704c-1.801 0-3.54-.26-5.203-.704zm-9.457-11.386h-2.97l6.734 13.467h2.97zm12.18 13.467h2.97l6.733-13.467h-2.97zm-26.29 0h14.11l-6.708-13.414c-11.593.535-20.868 10.106-20.868 21.83v21.884h5.05v-21.884c0-4.64 3.775-8.416 8.416-8.416zm52.184 8.416a5.056 5.056 0 0 0-5.05-5.05h-47.134a5.056 5.056 0 0 0-5.05 5.05v21.884h57.234zm8.416 0c0-11.724-9.275-21.295-20.868-21.83l-6.708 13.414h14.11c4.64 0 8.416 3.776 8.416 8.416v21.884h5.05zm-15.15 6.734h3.367v11.783h-3.367zm0-6.734h3.367v3.367h-3.367zm15.15-60.6h3.367v3.368h-3.367zm0 6.734h3.367v3.367h-3.367zm0 6.733h3.367v3.367h-3.367zm-77.433 6.734h3.367v3.366H231.1zm0 6.733h3.367v3.367H231.1zm0 6.733h3.367v3.367H231.1z"/></defs><g><g transform="translate(-221 -2219)"><use fill="#e6e6ff" xlink:href="#e3d3a"/></g></g></svg>