<svg xmlns="http://www.w3.org/2000/svg" xmlns:xlink="http://www.w3.org/1999/xlink" width="141" height="135" viewBox="0 0 141 135"><defs><path id="1icoa" d="M953.042 3472.344a7 7 0 1 1 0 14 7 7 0 0 1 0-14z"/><path id="1icob" d="M974.042 3472.344a7 7 0 1 1 0 14 7 7 0 0 1 0-14z"/><path id="1icoc" d="M995.042 3472.344a7 7 0 1 1 0 14 7 7 0 0 1 0-14z"/><path id="1icod" d="M1017.042 3472.344a7 7 0 1 1 0 14 7 7 0 0 1 0-14z"/><path id="1icoe" d="M1038.042 3472.344a7 7 0 1 1 0 14 7 7 0 0 1 0-14z"/><path id="1icof" d="M1059.042 3472.344a7 7 0 1 1 0 14 7 7 0 0 1 0-14z"/><path id="1icog" d="M1080.042 3472.344a7 7 0 1 1 0 14 7 7 0 0 1 0-14z"/><path id="1icoh" d="M953.042 3492.344a7 7 0 1 1 0 14 7 7 0 0 1 0-14z"/><path id="1icoi" d="M974.042 3492.344a7 7 0 1 1 0 14 7 7 0 0 1 0-14z"/><path id="1icoj" d="M995.042 3492.344a7 7 0 1 1 0 14 7 7 0 0 1 0-14z"/><path id="1icok" d="M1017.042 3492.344a7 7 0 1 1 0 14 7 7 0 0 1 0-14z"/><path id="1icol" d="M1038.042 3492.344a7 7 0 1 1 0 14 7 7 0 0 1 0-14z"/><path id="1icom" d="M1059.042 3492.344a7 7 0 1 1 0 14 7 7 0 0 1 0-14z"/><path id="1icon" d="M1080.042 3492.344a7 7 0 1 1 0 14 7 7 0 0 1 0-14z"/><path id="1icoo" d="M953.042 3512.344a7 7 0 1 1 0 14 7 7 0 0 1 0-14z"/><path id="1icop" d="M974.042 3512.344a7 7 0 1 1 0 14 7 7 0 0 1 0-14z"/><path id="1icoq" d="M995.042 3512.344a7 7 0 1 1 0 14 7 7 0 0 1 0-14z"/><path id="1icor" d="M1017.042 3512.344a7 7 0 1 1 0 14 7 7 0 0 1 0-14z"/><path id="1icos" d="M1038.042 3512.344a7 7 0 1 1 0 14 7 7 0 0 1 0-14z"/><path id="1icot" d="M1059.042 3512.344a7 7 0 1 1 0 14 7 7 0 0 1 0-14z"/><path id="1icou" d="M1080.042 3512.344a7 7 0 1 1 0 14 7 7 0 0 1 0-14z"/><path id="1icov" d="M953.042 3532.344a7 7 0 1 1 0 14 7 7 0 0 1 0-14z"/><path id="1icow" d="M974.042 3532.344a7 7 0 1 1 0 14 7 7 0 0 1 0-14z"/><path id="1icox" d="M995.042 3532.344a7 7 0 1 1 0 14 7 7 0 0 1 0-14z"/><path id="1icoy" d="M1017.042 3532.344a7 7 0 1 1 0 14 7 7 0 0 1 0-14z"/><path id="1icoz" d="M1038.042 3532.344a7 7 0 1 1 0 14 7 7 0 0 1 0-14z"/><path id="1icoA" d="M1059.042 3532.344a7 7 0 1 1 0 14 7 7 0 0 1 0-14z"/><path id="1icoB" d="M1080.042 3532.344a7 7 0 1 1 0 14 7 7 0 0 1 0-14z"/><path id="1icoC" d="M953.042 3552.344a7 7 0 1 1 0 14 7 7 0 0 1 0-14z"/><path id="1icoD" d="M974.042 3552.344a7 7 0 1 1 0 14 7 7 0 0 1 0-14z"/><path id="1icoE" d="M995.042 3552.344a7 7 0 1 1 0 14 7 7 0 0 1 0-14z"/><path id="1icoF" d="M1017.042 3552.344a7 7 0 1 1 0 14 7 7 0 0 1 0-14z"/><path id="1icoG" d="M1038.042 3552.344a7 7 0 1 1 0 14 7 7 0 0 1 0-14z"/><path id="1icoH" d="M1059.042 3552.344a7 7 0 1 1 0 14 7 7 0 0 1 0-14z"/><path id="1icoI" d="M1080.042 3552.344a7 7 0 1 1 0 14 7 7 0 0 1 0-14z"/><path id="1icoJ" d="M953.042 3572.344a7 7 0 1 1 0 14 7 7 0 0 1 0-14z"/><path id="1icoK" d="M974.042 3572.344a7 7 0 1 1 0 14 7 7 0 0 1 0-14z"/><path id="1icoL" d="M995.042 3572.344a7 7 0 1 1 0 14 7 7 0 0 1 0-14z"/><path id="1icoM" d="M1017.042 3572.344a7 7 0 1 1 0 14 7 7 0 0 1 0-14z"/><path id="1icoN" d="M1038.042 3572.344a7 7 0 1 1 0 14 7 7 0 0 1 0-14z"/><path id="1icoO" d="M1059.042 3572.344a7 7 0 1 1 0 14 7 7 0 0 1 0-14z"/><path id="1icoP" d="M1080.042 3572.344a7 7 0 1 1 0 14 7 7 0 0 1 0-14z"/><path id="1icoQ" d="M953.042 3592.344a7 7 0 1 1 0 14 7 7 0 0 1 0-14z"/><path id="1icoR" d="M974.042 3592.344a7 7 0 1 1 0 14 7 7 0 0 1 0-14z"/><path id="1icoS" d="M995.042 3592.344a7 7 0 1 1 0 14 7 7 0 0 1 0-14z"/><path id="1icoT" d="M1017.042 3592.344a7 7 0 1 1 0 14 7 7 0 0 1 0-14z"/><path id="1icoU" d="M1038.042 3592.344a7 7 0 1 1 0 14 7 7 0 0 1 0-14z"/><path id="1icoV" d="M1059.042 3592.344a7 7 0 1 1 0 14 7 7 0 0 1 0-14z"/><path id="1icoW" d="M1080.042 3592.344a7 7 0 1 1 0 14 7 7 0 0 1 0-14z"/></defs><g><g transform="translate(-946 -3472)"><g><use fill="#8081e1" xlink:href="#1icoa"/></g><g><use fill="#8081e1" xlink:href="#1icob"/></g><g><use fill="#8081e1" xlink:href="#1icoc"/></g><g><use fill="#8081e1" xlink:href="#1icod"/></g><g><use fill="#8081e1" xlink:href="#1icoe"/></g><g><use fill="#8081e1" xlink:href="#1icof"/></g><g><use fill="#8081e1" xlink:href="#1icog"/></g><g><use fill="#8081e1" xlink:href="#1icoh"/></g><g><use fill="#8081e1" xlink:href="#1icoi"/></g><g><use fill="#8081e1" xlink:href="#1icoj"/></g><g><use fill="#8081e1" xlink:href="#1icok"/></g><g><use fill="#8081e1" xlink:href="#1icol"/></g><g><use fill="#8081e1" xlink:href="#1icom"/></g><g><use fill="#8081e1" xlink:href="#1icon"/></g><g><use fill="#8081e1" xlink:href="#1icoo"/></g><g><use fill="#8081e1" xlink:href="#1icop"/></g><g><use fill="#8081e1" xlink:href="#1icoq"/></g><g><use fill="#8081e1" xlink:href="#1icor"/></g><g><use fill="#8081e1" xlink:href="#1icos"/></g><g><use fill="#8081e1" xlink:href="#1icot"/></g><g><use fill="#8081e1" xlink:href="#1icou"/></g><g><use fill="#8081e1" xlink:href="#1icov"/></g><g><use fill="#8081e1" xlink:href="#1icow"/></g><g><use fill="#8081e1" xlink:href="#1icox"/></g><g><use fill="#8081e1" xlink:href="#1icoy"/></g><g><use fill="#8081e1" xlink:href="#1icoz"/></g><g><use fill="#8081e1" xlink:href="#1icoA"/></g><g><use fill="#8081e1" xlink:href="#1icoB"/></g><g><use fill="#8081e1" xlink:href="#1icoC"/></g><g><use fill="#8081e1" xlink:href="#1icoD"/></g><g><use fill="#8081e1" xlink:href="#1icoE"/></g><g><use fill="#8081e1" xlink:href="#1icoF"/></g><g><use fill="#8081e1" xlink:href="#1icoG"/></g><g><use fill="#8081e1" xlink:href="#1icoH"/></g><g><use fill="#8081e1" xlink:href="#1icoI"/></g><g><use fill="#8081e1" xlink:href="#1icoJ"/></g><g><use fill="#8081e1" xlink:href="#1icoK"/></g><g><use fill="#8081e1" xlink:href="#1icoL"/></g><g><use fill="#8081e1" xlink:href="#1icoM"/></g><g><use fill="#8081e1" xlink:href="#1icoN"/></g><g><use fill="#8081e1" xlink:href="#1icoO"/></g><g><use fill="#8081e1" xlink:href="#1icoP"/></g><g><use fill="#8081e1" xlink:href="#1icoQ"/></g><g><use fill="#8081e1" xlink:href="#1icoR"/></g><g><use fill="#8081e1" xlink:href="#1icoS"/></g><g><use fill="#8081e1" xlink:href="#1icoT"/></g><g><use fill="#8081e1" xlink:href="#1icoU"/></g><g><use fill="#8081e1" xlink:href="#1icoV"/></g><g><use fill="#8081e1" xlink:href="#1icoW"/></g></g></g></svg>