<svg xmlns="http://www.w3.org/2000/svg" xmlns:xlink="http://www.w3.org/1999/xlink" width="142" height="21" viewBox="0 0 142 21"><defs><path id="s7ida" d="M652.417 872.894c2.569 1.55 2.336 4.497 2.336 4.497v1.938c-.309 4.809-6.917 4.674-6.917 4.674-6.918 0-6.767-4.554-6.767-4.554v-2.381h5.383v1.639c0 1.396 1.344 1.457 1.344 1.457 1.47.058 1.593-1.366 1.593-1.366.2-1.387-1.322-2.258-1.322-2.258a308.028 308.028 0 0 1-4.018-2.134c-1.237-.814-1.74-1.551-1.74-1.551-.888-1.124-.83-2.87-.83-2.87v-1.512c0-2.094.56-2.694.56-2.694 1.43-2.695 6.415-2.366 6.415-2.366 6.34.174 5.95 4.13 5.95 4.13l.01 2.415h-5.052v-1.64c0-1.163-1.41-1.24-1.41-1.24-1.082 0-1.333.736-1.333.736-.6 1.125.424 2.094.424 2.094.522.582 3.15 1.804 3.15 1.804.85.33 2.224 1.182 2.224 1.182zm-25.863-8.914h8.356l.54 19.357h-5.022l-.12-14.508h-.348l-2.616 14.505h-5.257l-2.648-14.51h-.393l-.06 14.513h-4.996l.422-19.262h8.44l1.615 10.542h.396zm-29.741.08h8.488l3.323 19.255h-5.377l-1.969-14.93h-.442l-1.97 14.93h-5.378zm112.861 8.569h6.505v5.991s-.065 1.705-.318 2.24c0 0-.23.918-1.12 1.581 0 0-.966 1.02-4.168 1.376-.122.006-7.318.541-7.474-4.732v-10.198s-.81-5.623 6.493-5.623c0 0 4.752-.154 6.008 2.676 0 0 .621.759.456 3.888h-5.064v-1.604s-.009-1.295-1.324-1.295c0 0-1.37.058-1.37 1.144v10.547s-.058 1.416 1.486 1.416c0 0 1.27-.027 1.27-1.517v-3.049h-1.38zm-16.786 3.134l-.36-11.78h5.067v19.357h-5.964l-5.324-11.777h-.223l.3 11.777h-5.004v-19.356h6.147l5.14 11.779zm-23.724 2.753v-14.52h5.363v14.695c0 5.296-6.682 5.216-6.682 5.216-7.688 0-7.125-5.467-7.125-5.467v-14.444h5.489l.015 14.56c0 1.633 1.545 1.55 1.545 1.55 1.467 0 1.395-1.59 1.395-1.59zm-82.816-5.622c2.57 1.55 2.34 4.498 2.34 4.498v1.937c-.311 4.809-6.92 4.674-6.92 4.674-6.916 0-6.765-4.554-6.765-4.554v-2.382h5.384v1.64c0 1.396 1.344 1.457 1.344 1.457 1.468.058 1.592-1.366 1.592-1.366.201-1.387-1.322-2.26-1.322-2.26a299.464 299.464 0 0 1-4.018-2.132c-1.237-.814-1.739-1.551-1.739-1.551-.89-1.125-.831-2.87-.831-2.87v-1.512c0-2.095.56-2.694.56-2.694.008-.015.019-.027.027-.042 1.372-2.112 5.21-2.32 5.21-2.32.701-.035 1.178-.004 1.178-.004 6.337.173 5.951 4.129 5.951 4.129l.01 2.416h-5.053v-1.64c0-1.163-1.411-1.24-1.411-1.24-1.082 0-1.332.737-1.332.737-.6 1.123.425 2.093.425 2.093.521.583 3.148 1.804 3.148 1.804.85.33 2.222 1.182 2.222 1.182z"/></defs><g><g transform="translate(-575 -863)"><use fill="#abcdff" xlink:href="#s7ida"/></g></g></svg>