<?xml version="1.0" encoding="utf-8"?>
<!-- Generator: Adobe Illustrator 16.0.0, SVG Export Plug-In . SVG Version: 6.00 Build 0)  -->
<!DOCTYPE svg PUBLIC "-//W3C//DTD SVG 1.1//EN" "http://www.w3.org/Graphics/SVG/1.1/DTD/svg11.dtd">
<svg version="1.1" id="Layer_1" xmlns="http://www.w3.org/2000/svg" xmlns:xlink="http://www.w3.org/1999/xlink" x="0px" y="0px"
	 width="739.914px" height="685.239px" viewBox="580.933 616.511 739.914 685.239"
	 enable-background="new 580.933 616.511 739.914 685.239" xml:space="preserve">
<g>
	<g transform="translate(172 331)">
		<g>
			
				<linearGradient id="v5xoc_1_" gradientUnits="userSpaceOnUse" x1="-637.5098" y1="1262.3594" x2="-245.1107" y2="1537.2488" gradientTransform="matrix(1 0 0 -1 516 1722.0215)">
				<stop  offset="0" style="stop-color:#5533FF"/>
				<stop  offset="1" style="stop-color:#0AC8D9"/>
			</linearGradient>
			<path id="v5xoc" fill="url(#v5xoc_1_)" d="M107.823,128.686c109.405,7.998,244.772,127.276,136.981,215.019
				C137.012,431.445,125.589,563.479,44.093,553.7c-81.497-9.779-152.913-143.34-152.325-249.148
				C-107.644,198.743-1.583,120.688,107.823,128.686L107.823,128.686z"/>
		</g>
	</g>
	<g transform="translate(172 331)">
		<g>
			
				<linearGradient id="v5xoe_1_" gradientUnits="userSpaceOnUse" x1="434.1406" y1="648.6826" x2="434.0745" y2="1478.9463" gradientTransform="matrix(1 0 0 -1 516 1722.0215)">
				<stop  offset="0" style="stop-color:#5533FF"/>
				<stop  offset="1" style="stop-color:#0AC8D9"/>
			</linearGradient>
			<path id="v5xoe" fill="url(#v5xoe_1_)" d="M1169.95,243.382c28.263,16.314,48.669,711.561,13.797,771.949
				c-34.87,60.389-382.527,66.579-410.789,50.262c-28.264-16.313-100.413,17.326-65.541-43.063
				c13.105-22.696-49.578-111.373,158.377-161.947c207.957-50.575,106.164-181.745,206.37-254.917
				c100.207-73.173-48.782-228.212,28.796-277.71C1178.54,278.456,1162.465,239.061,1169.95,243.382L1169.95,243.382z"/>
		</g>
	</g>
	<g transform="translate(172 331)">
		<g>
			<path id="v5xog" fill="#4289E4" d="M88.161,753.716c-1.124,0-2.229,0.018-3.335,0.07c0,0-18.124,3.248-18.124,20.698
				c0,20.134,18.124,22.874,18.124,22.874c1.109-0.094,2.221-0.143,3.335-0.146c21.84,0,39.601,17.763,39.601,39.603
				c0,21.821-17.762,39.602-39.601,39.602c-21.84,0-39.602-17.78-39.602-39.602c0,0-1.624-18.125-20.758-18.125
				c-21.38,0-22.741,18.125-22.741,18.125c0,45.889,37.191,83.1,83.1,83.1c45.89,0,83.1-37.211,83.1-83.1
				C171.261,790.905,134.051,753.716,88.161,753.716z"/>
		</g>
	</g>
	<g transform="translate(172 331)" opacity="0.5">
		<g>
			<path id="v5xoh" fill="#32C5EA" d="M1170.366,888.396c45.405,0,82.344,36.944,82.344,82.354
				c0,45.412-36.938,82.355-82.344,82.355c-45.404,0-82.344-36.943-82.344-82.355
				C1088.022,925.34,1124.962,888.396,1170.366,888.396z M997.579,970.749c0,95.439,77.359,172.811,172.787,172.811
				c95.429,0,172.787-77.37,172.787-172.811c0-95.438-77.361-172.809-172.787-172.809
				C1074.938,797.94,997.579,875.31,997.579,970.749z"/>
		</g>
	</g>
</g>
</svg>
