<?xml version="1.0" encoding="utf-8"?>
<!-- Generator: Adobe Illustrator 16.0.0, SVG Export Plug-In . SVG Version: 6.00 Build 0)  -->
<!DOCTYPE svg PUBLIC "-//W3C//DTD SVG 1.1//EN" "http://www.w3.org/Graphics/SVG/1.1/DTD/svg11.dtd">
<svg version="1.1" id="Layer_1" xmlns="http://www.w3.org/2000/svg" xmlns:xlink="http://www.w3.org/1999/xlink" x="0px" y="0px"
	 width="224.479px" height="543.903px" viewBox="0 0 224.479 543.903" enable-background="new 0 0 224.479 543.903"
	 xml:space="preserve">
<g>
	<g transform="translate(172 331)">
		<g>
			
				<linearGradient id="v5xoc_1_" gradientUnits="userSpaceOnUse" x1="-794.4678" y1="1768.8354" x2="-402.0685" y2="2043.725" gradientTransform="matrix(1 0 0 -1 516 1521.4854)">
				<stop  offset="0" style="stop-color:#5533FF"/>
				<stop  offset="1" style="stop-color:#0AC8D9"/>
			</linearGradient>
			<path id="v5xoc" fill="url(#v5xoc_1_)" d="M-49.136-578.326c109.406,7.998,244.771,127.276,136.98,215.018
				C-19.946-275.566-31.369-143.533-112.866-153.311c-81.496-9.779-152.912-143.341-152.324-249.149
				C-264.603-508.269-158.541-586.324-49.136-578.326L-49.136-578.326z"/>
		</g>
	</g>
	<g transform="translate(172 331)">
		<g>
			
				<linearGradient id="v5xoe_1_" gradientUnits="userSpaceOnUse" x1="277.1816" y1="1155.1567" x2="277.1155" y2="1985.4233" gradientTransform="matrix(1 0 0 -1 516 1521.4854)">
				<stop  offset="0" style="stop-color:#5533FF"/>
				<stop  offset="1" style="stop-color:#0AC8D9"/>
			</linearGradient>
			<path id="v5xoe" fill="url(#v5xoe_1_)" d="M1012.993-463.63c28.262,16.314,48.668,711.561,13.797,771.95
				c-34.871,60.389-382.529,66.579-410.791,50.263c-28.264-16.313-100.412,17.324-65.541-43.065
				c13.106-22.694-49.578-111.371,158.378-161.946C916.792,102.997,815-28.173,915.206-101.345
				c100.207-73.174-48.783-228.213,28.796-277.711C1021.583-428.556,1005.507-467.952,1012.993-463.63L1012.993-463.63z"/>
		</g>
	</g>
	<g transform="translate(172 331)">
		<g>
			<path id="v5xog" fill="#4289E4" d="M-68.798,46.704c-1.123,0-2.229,0.019-3.334,0.072c0,0-18.125,3.247-18.125,20.696
				c0,20.136,18.125,22.875,18.125,22.875c1.109-0.095,2.221-0.143,3.334-0.146c21.84,0,39.602,17.762,39.602,39.602
				c0,21.821-17.762,39.602-39.602,39.602s-39.602-17.78-39.602-39.602c0,0-1.623-18.124-20.758-18.124
				c-21.38,0-22.74,18.124-22.74,18.124c0,45.891,37.19,83.1,83.1,83.1c45.891,0,83.1-37.209,83.1-83.1
				C14.302,83.895-22.907,46.704-68.798,46.704z"/>
		</g>
	</g>
	<g transform="translate(172 331)" opacity="0.5">
		<g>
			<path id="v5xoh" fill="#32C5EA" d="M1013.407,181.384c45.406,0,82.345,36.943,82.345,82.354
				c0,45.411-36.938,82.354-82.345,82.354c-45.404,0-82.343-36.942-82.343-82.354C931.064,218.328,968.003,181.384,1013.407,181.384
				z M840.62,263.738c0,95.44,77.359,172.811,172.787,172.811c95.43,0,172.789-77.37,172.789-172.811
				c0-95.438-77.361-172.81-172.789-172.81C917.98,90.928,840.62,168.298,840.62,263.738z"/>
		</g>
	</g>
</g>
</svg>
