<?xml version="1.0" encoding="utf-8"?>
<!-- Generator: Adobe Illustrator 16.0.0, SVG Export Plug-In . SVG Version: 6.00 Build 0)  -->
<!DOCTYPE svg PUBLIC "-//W3C//DTD SVG 1.1//EN" "http://www.w3.org/Graphics/SVG/1.1/DTD/svg11.dtd">
<svg version="1.1" id="Layer_1" xmlns="http://www.w3.org/2000/svg" xmlns:xlink="http://www.w3.org/1999/xlink" x="0px" y="0px"
	 width="561.29px" height="759.38px" viewBox="0.1 0.125 561.29 759.38" enable-background="new 0.1 0.125 561.29 759.38"
	 xml:space="preserve">
<g>
	<g transform="translate(-966 -3020)">
		<g>
			
				<linearGradient id="_x34_lhya_1_" gradientUnits="userSpaceOnUse" x1="2212.1836" y1="-172.4673" x2="2213.1038" y2="586.8603" gradientTransform="matrix(1 0 0 -1 -966 3607)">
				<stop  offset="0" style="stop-color:#4D5FE0"/>
				<stop  offset="1" style="stop-color:#2ED3EB"/>
			</linearGradient>
			<path id="_x34_lhya" fill="url(#_x34_lhya_1_)" d="M1357.184,3747.455c-120.214,102.33-254.783-58.345-337.144-228.794
				c-82.36-170.45-73.237-338.494,46.976-440.825c120.214-102.331,348.317-68.675,430.678,101.774
				C1580.054,3350.06,1477.396,3645.126,1357.184,3747.455L1357.184,3747.455z"/>
		</g>
	</g>
	<g transform="translate(-966 -3020)">
		<g>
			<path id="_x34_lhyc" fill="#418BE4" d="M1319.092,3681.002c6.67,0,12.668-1.426,17.825-4.236
				c5.124-2.794,9.491-6.804,12.983-11.915c3.393-4.972,5.964-10.973,7.639-17.837c1.633-6.693,2.461-14.277,2.461-22.54v-37.153
				c0-2.384-1.924-4.319-4.302-4.319h-36.604c-2.38,0.004-4.307,1.937-4.303,4.316c0,0.001,0,0.003,0,0.003v37.154
				c0,2.385,1.926,4.32,4.303,4.32h13.729c-0.64,17.237-5.251,25.97-13.73,25.97c-2.376,0-4.302,1.934-4.302,4.32v17.597
				C1314.791,3679.068,1316.717,3681.002,1319.092,3681.002L1319.092,3681.002z M1259.302,3654.764c-2.374,0-4.302,1.937-4.302,4.32
				v17.597c0,2.388,1.927,4.32,4.303,4.32c6.667,0,12.665-1.425,17.821-4.236c5.124-2.794,9.494-6.804,12.987-11.914
				c3.392-4.973,5.962-10.974,7.638-17.84c1.632-6.695,2.46-14.278,2.46-22.537v-37.154c0-2.385-1.927-4.319-4.302-4.319h-36.604
				c-2.375,0-4.301,1.937-4.301,4.32v37.154c0,2.385,1.926,4.32,4.301,4.32h13.533
				C1272.206,3646.031,1267.662,3654.765,1259.302,3654.764L1259.302,3654.764z"/>
		</g>
	</g>
</g>
</svg>
