<svg xmlns="http://www.w3.org/2000/svg" xmlns:xlink="http://www.w3.org/1999/xlink" width="562" height="586" viewBox="0 0 562 586"><defs><path id="4lhya" d="M1357.184 3581.278c-120.214 78.95-254.783-45.014-337.144-176.52-82.36-131.506-73.237-261.157 46.976-340.108 120.214-78.95 348.317-52.984 430.678 78.522 82.36 131.506-20.297 359.156-140.51 438.106z"/><path id="4lhyc" d="M1319.092 3541.002c6.67 0 12.668-1.426 17.825-4.236 5.124-2.794 9.491-6.804 12.983-11.915 3.393-4.972 5.964-10.973 7.639-17.837 1.633-6.694 2.461-14.277 2.461-22.54v-37.153c0-2.384-1.924-4.32-4.302-4.32h-36.604a4.31 4.31 0 0 0-4.303 4.32v37.154c0 2.385 1.926 4.32 4.303 4.32h13.729c-.64 17.237-5.251 25.97-13.73 25.97-2.376 0-4.302 1.933-4.302 4.32v17.597c0 2.386 1.926 4.32 4.301 4.32zm-59.79-26.238c-2.374 0-4.302 1.936-4.302 4.32v17.597c0 2.387 1.927 4.32 4.303 4.32 6.667 0 12.665-1.425 17.821-4.236 5.124-2.794 9.494-6.804 12.987-11.914 3.392-4.973 5.962-10.974 7.638-17.84 1.632-6.695 2.46-14.278 2.46-22.537v-37.154c0-2.385-1.927-4.319-4.302-4.319h-36.604c-2.375 0-4.301 1.936-4.301 4.32v37.154c0 2.385 1.926 4.32 4.301 4.32h13.533c-.63 17.237-5.174 25.97-13.533 25.97z"/><linearGradient id="4lhyb" x1="1246.39" x2="1247.1" y1="3606.01" y2="3020.13" gradientUnits="userSpaceOnUse"><stop offset="0" stop-color="#4d5fe0"/><stop offset="1" stop-color="#2ed3eb"/></linearGradient></defs><g><g transform="translate(-966 -3020)"><use fill="url(#4lhyb)" xlink:href="#4lhya"/></g><g transform="translate(-966 -3020)"><use fill="#418be4" xlink:href="#4lhyc"/></g></g></svg>